<svg width="15" height="12" viewBox="0 0 15 12" fill="none" xmlns="http://www.w3.org/2000/svg">
<path d="M6.03 1.52342C5.04207 1.05174 3.66121 0.820681 1.8125 0.812478C1.63815 0.810109 1.46722 0.86095 1.3225 0.95822C1.20372 1.03851 1.10648 1.14676 1.03935 1.27344C0.972215 1.40013 0.937241 1.54137 0.937501 1.68474V9.50779C0.937501 10.0366 1.31375 10.4356 1.8125 10.4356C3.75582 10.4356 5.70516 10.6171 6.87274 11.7207C6.88871 11.7359 6.90878 11.746 6.93047 11.7499C6.95216 11.7537 6.97449 11.7511 6.99471 11.7424C7.01493 11.7336 7.03213 11.7192 7.04418 11.7007C7.05624 11.6823 7.06261 11.6607 7.0625 11.6387V2.42084C7.06255 2.35865 7.04925 2.29717 7.02349 2.24056C6.99773 2.18395 6.96012 2.13353 6.9132 2.09271C6.64576 1.86407 6.34868 1.67258 6.03 1.52342ZM13.6775 0.9574C13.5327 0.860372 13.3618 0.809815 13.1875 0.812478C11.3388 0.820681 9.95793 1.05064 8.97 1.52342C8.65134 1.67231 8.35418 1.86343 8.08653 2.09162C8.03971 2.13251 8.00219 2.18295 7.97649 2.23955C7.95078 2.29614 7.93749 2.35758 7.9375 2.41974V11.6381C7.93749 11.6593 7.94373 11.68 7.95543 11.6976C7.96713 11.7153 7.98379 11.7291 8.00329 11.7373C8.0228 11.7455 8.0443 11.7477 8.06509 11.7438C8.08588 11.7398 8.10504 11.7298 8.12016 11.715C8.82207 11.0177 10.0539 10.4347 13.1886 10.435C13.4207 10.435 13.6432 10.3428 13.8073 10.1787C13.9714 10.0146 14.0636 9.79208 14.0636 9.56002V1.68502C14.0639 1.54136 14.0289 1.39983 13.9615 1.27293C13.8942 1.14604 13.7966 1.03767 13.6775 0.9574Z" fill="#0B0B0B" fill-opacity="0.6"/>
</svg>
