<svg width="18" height="18" viewBox="0 0 18 18" fill="none" xmlns="http://www.w3.org/2000/svg">
<path d="M11.28 7.08001C12.84 7.08001 13.8 4.80001 13.8 3.36001C13.8 2.16001 13.2 0.720006 12 0.720006C10.44 0.720006 9.47996 3.00001 9.47996 4.44001C9.47996 5.64001 10.08 7.08001 11.28 7.08001ZM6.71996 7.08001C7.91996 7.08001 8.51996 5.64001 8.51996 4.44001C8.51996 2.88001 7.55996 0.600006 5.99996 0.600006C4.79996 0.600006 4.19996 2.04001 4.19996 3.24001C4.07996 4.80001 5.03996 7.08001 6.71996 7.08001ZM15.6 5.88001C14.04 5.88001 12.96 8.04001 12.96 9.60001C12.96 10.68 13.44 11.76 14.52 11.76C16.08 11.76 17.16 9.60001 17.16 8.04001C17.16 6.96001 16.56 5.88001 15.6 5.88001ZM5.15996 9.60001C5.15996 8.04001 3.95996 5.88001 2.51996 5.88001C1.43996 5.88001 0.959961 6.96001 0.959961 8.04001C0.959961 9.60001 2.15996 11.76 3.59996 11.76C4.67996 11.76 5.15996 10.68 5.15996 9.60001ZM8.99996 9.36001C6.59996 9.36001 3.35996 13.2 3.35996 15.84C3.35996 17.04 4.19996 17.4 5.15996 17.4C6.59996 17.4 7.67996 16.44 8.99996 16.44C10.2 16.44 11.28 17.4 12.6 17.4C13.56 17.4 14.64 17.16 14.64 15.84C14.64 13.2 11.4 9.36001 8.99996 9.36001Z" fill="#0B0B0B" fill-opacity="0.3"/>
</svg>
