<svg width="13" height="13" viewBox="0 0 13 13" fill="none" xmlns="http://www.w3.org/2000/svg">
<path d="M1.46665 6.33328C1.21109 6.33328 1.01932 6.22484 0.891316 6.00795C0.763316 5.79106 0.76065 5.57173 0.883317 5.34995L3.08332 1.38328C3.20554 1.16106 3.39998 1.04995 3.66665 1.04995C3.93332 1.04995 4.12776 1.16106 4.24998 1.38328L6.44998 5.34995C6.57221 5.57217 6.56932 5.79173 6.44132 6.00862C6.31332 6.22551 6.12176 6.33373 5.86665 6.33328H1.46665ZM3.66665 13C2.93332 13 2.30554 12.7388 1.78332 12.2166C1.26109 11.6944 0.999983 11.0666 0.999983 10.3333C0.999983 9.59995 1.26109 8.97217 1.78332 8.44995C2.30554 7.92773 2.93332 7.66662 3.66665 7.66662C4.39998 7.66662 5.02776 7.92773 5.54998 8.44995C6.07221 8.97217 6.33332 9.59995 6.33332 10.3333C6.33332 11.0666 6.07221 11.6944 5.54998 12.2166C5.02776 12.7388 4.39998 13 3.66665 13ZM8.33332 13C8.14443 13 7.98598 12.936 7.85798 12.808C7.72998 12.68 7.66621 12.5217 7.66665 12.3333V8.33328C7.66665 8.1444 7.73065 7.98595 7.85865 7.85795C7.98665 7.72995 8.14487 7.66617 8.33332 7.66662H12.3333C12.5222 7.66662 12.6806 7.73062 12.8086 7.85862C12.9366 7.98662 13.0004 8.14484 13 8.33328V12.3333C13 12.5222 12.936 12.6806 12.808 12.8086C12.68 12.9366 12.5218 13.0004 12.3333 13H8.33332ZM9.39998 3.33328L8.13332 2.06662C8.01109 1.9444 7.94998 1.78884 7.94998 1.59995C7.94998 1.41106 8.01109 1.25551 8.13332 1.13328C8.25554 1.01106 8.41109 0.949951 8.59998 0.949951C8.78887 0.949951 8.94443 1.01106 9.06665 1.13328L10.3333 2.39995L11.6 1.13328C11.7222 1.01106 11.8778 0.949951 12.0666 0.949951C12.2555 0.949951 12.4111 1.01106 12.5333 1.13328C12.6555 1.25551 12.7167 1.41106 12.7167 1.59995C12.7167 1.78884 12.6555 1.9444 12.5333 2.06662L11.2666 3.33328L12.5333 4.59995C12.6555 4.72217 12.7167 4.87773 12.7167 5.06662C12.7167 5.25551 12.6555 5.41106 12.5333 5.53328C12.4111 5.65551 12.2555 5.71662 12.0666 5.71662C11.8778 5.71662 11.7222 5.65551 11.6 5.53328L10.3333 4.26662L9.06665 5.53328C8.94443 5.65551 8.78887 5.71662 8.59998 5.71662C8.41109 5.71662 8.25554 5.65551 8.13332 5.53328C8.01109 5.41106 7.94998 5.25551 7.94998 5.06662C7.94998 4.87773 8.01109 4.72217 8.13332 4.59995L9.39998 3.33328Z" fill="#0B0B0B" fill-opacity="0.3"/>
</svg>
