<svg width="16" height="14" viewBox="0 0 16 14" fill="none" xmlns="http://www.w3.org/2000/svg">
<path d="M1.86499 9.94794C2.90749 10.8559 4.56499 12.023 6.01749 11.8017C6.16999 11.779 6.31999 11.7388 6.46749 11.6885C6.23749 11.3791 6.03499 11.0748 5.86249 10.7981C5.31499 9.91776 5.14249 8.90663 5.21499 7.94077C4.69999 8.0439 4.23499 8.26775 3.84749 8.57965C3.68499 8.71044 3.43999 8.61234 3.47749 8.40358C3.63749 7.56097 4.30249 6.87179 5.18249 6.73597C5.24749 6.72591 5.31499 6.71836 5.37999 6.71585L5.86499 3.41333C5.91499 3.06623 6.06499 2.59085 6.49 2.25884C6.955 1.89916 7.7625 1.49169 9.08 1.37096L9.01999 1.31814C8.51499 0.925759 7.20999 0.271795 4.39249 0.701902C1.57499 1.13201 0.512494 2.14565 0.142494 2.67134C-5.62668e-06 2.87256 -0.0200056 3.1266 0.0149944 3.37309L0.619994 7.50564C0.757494 8.44382 1.15749 9.3317 1.86499 9.95045V9.94794ZM4.05749 4.42446C4.16749 4.34649 4.32749 4.37416 4.35249 4.50747C4.35499 4.52004 4.35749 4.53513 4.35999 4.54771C4.43999 5.09603 4.06999 5.60411 3.53249 5.68712C2.99499 5.77012 2.49499 5.39032 2.41499 4.84451C2.41249 4.83193 2.41249 4.81684 2.40999 4.80426C2.39499 4.66844 2.53999 4.59298 2.66749 4.63574C2.89249 4.7112 3.13749 4.73384 3.38499 4.69611C3.63249 4.65838 3.86249 4.5628 4.05499 4.42446H4.05749ZM6.53999 10.3705C7.27499 11.5501 8.5275 13.1599 9.97999 13.3812C11.4325 13.6026 13.0925 12.438 14.1325 11.5275C14.84 10.9113 15.24 10.0234 15.3775 9.08269L15.9825 4.95015C16.0175 4.70365 15.9975 4.44962 15.855 4.2484C15.485 3.72271 14.4225 2.70907 11.605 2.27896C8.7875 1.84885 7.48499 2.50282 6.98 2.89519C6.785 3.04611 6.69249 3.28254 6.65749 3.52904L6.05249 7.66158C5.91499 8.59977 6.0425 9.56814 6.5425 10.3705H6.53999ZM10.1125 6.47942C9.91999 6.34108 9.6925 6.2455 9.4425 6.20777C9.1925 6.17004 8.94749 6.19268 8.72499 6.26814C8.5975 6.31089 8.45249 6.23544 8.46749 6.09961C8.47 6.08704 8.46999 6.07195 8.4725 6.05937C8.5525 5.51105 9.0525 5.13376 9.59 5.21676C10.1275 5.29977 10.4975 5.80785 10.4175 6.35617C10.415 6.36875 10.4125 6.38384 10.41 6.39641C10.385 6.52972 10.225 6.55739 10.115 6.47942H10.1125ZM13.5175 6.86928C13.4925 7.00259 13.3325 7.03026 13.2225 6.95228C13.03 6.81394 12.8025 6.71836 12.5525 6.68064C12.3025 6.64291 12.0575 6.66554 11.835 6.741C11.7075 6.78376 11.5625 6.7083 11.5775 6.57248C11.58 6.5599 11.58 6.54481 11.5825 6.53224C11.6625 5.98391 12.1625 5.60663 12.7 5.68963C13.2375 5.77263 13.6075 6.28071 13.5275 6.82904C13.525 6.84161 13.5225 6.8567 13.52 6.86928H13.5175ZM13.25 9.36943C12.76 10.4937 11.58 11.193 10.33 11.0018C9.08 10.8107 8.1525 9.78948 8.005 8.56958C7.98 8.36082 8.22749 8.26524 8.38499 8.40106C8.98249 8.92423 9.72499 9.28894 10.56 9.41471C11.395 9.54047 12.2125 9.41722 12.9325 9.09276C13.1225 9.00724 13.3325 9.17324 13.2475 9.36692L13.25 9.36943Z" fill="#0B0B0B" fill-opacity="0.3"/>
</svg>
