<svg width="24" height="24" viewBox="0 0 24 24" fill="none" xmlns="http://www.w3.org/2000/svg">
<g clip-path="url(#clip0_521_9853)">
<path fill-rule="evenodd" clip-rule="evenodd" d="M14.279 2.152C13.909 2 13.439 2 12.5 2C11.561 2 11.091 2 10.721 2.152C10.2284 2.35421 9.83637 2.74377 9.63099 3.235C9.53699 3.458 9.501 3.719 9.486 4.098C9.47933 4.3726 9.40273 4.64097 9.26344 4.87772C9.12416 5.11447 8.92679 5.31178 8.68999 5.451C8.44874 5.5851 8.17754 5.65615 7.90152 5.65754C7.6255 5.65894 7.3536 5.59065 7.111 5.459C6.773 5.281 6.528 5.183 6.286 5.151C5.75655 5.08148 5.22107 5.2238 4.796 5.547C4.478 5.789 4.243 6.193 3.774 7C3.304 7.807 3.07 8.21 3.017 8.605C2.947 9.131 3.091 9.663 3.417 10.084C3.565 10.276 3.774 10.437 4.097 10.639C4.574 10.936 4.88 11.442 4.88 12C4.88 12.558 4.574 13.064 4.098 13.36C3.774 13.563 3.56499 13.724 3.416 13.916C3.25508 14.1239 3.13696 14.3617 3.06848 14.6156C2.99999 14.8694 2.9825 15.1343 3.017 15.395C3.07 15.789 3.304 16.193 3.774 17C4.244 17.807 4.478 18.21 4.796 18.453C5.22 18.776 5.756 18.918 6.286 18.849C6.528 18.817 6.773 18.719 7.111 18.541C7.35372 18.4092 7.62581 18.3408 7.90202 18.3422C8.17823 18.3436 8.44962 18.4147 8.691 18.549C9.177 18.829 9.465 19.344 9.486 19.902C9.501 20.282 9.53699 20.542 9.63099 20.765C9.83499 21.255 10.227 21.645 10.721 21.848C11.091 22 11.561 22 12.5 22C13.439 22 13.909 22 14.279 21.848C14.7715 21.6458 15.1636 21.2562 15.369 20.765C15.463 20.542 15.499 20.282 15.514 19.902C15.534 19.344 15.823 18.828 16.31 18.549C16.5513 18.4149 16.8225 18.3439 17.0985 18.3425C17.3745 18.3411 17.6464 18.4093 17.889 18.541C18.227 18.719 18.472 18.817 18.714 18.849C19.244 18.919 19.78 18.776 20.204 18.453C20.522 18.211 20.757 17.807 21.226 17C21.696 16.193 21.93 15.79 21.983 15.395C22.0174 15.1343 21.9997 14.8693 21.931 14.6155C21.8624 14.3616 21.7441 14.1239 21.583 13.916C21.435 13.724 21.226 13.563 20.903 13.361C20.426 13.064 20.12 12.558 20.12 12C20.12 11.442 20.426 10.936 20.902 10.64C21.226 10.437 21.435 10.276 21.584 10.084C21.7449 9.87606 21.863 9.63829 21.9315 9.38443C22 9.13057 22.0175 8.86566 21.983 8.605C21.93 8.211 21.696 7.807 21.226 7C20.756 6.193 20.522 5.79 20.204 5.547C19.7789 5.2238 19.2434 5.08148 18.714 5.151C18.472 5.183 18.227 5.281 17.889 5.459C17.6463 5.59083 17.3742 5.65922 17.098 5.65782C16.8218 5.65642 16.5504 5.58528 16.309 5.451C16.0724 5.31166 15.8752 5.11429 15.7361 4.87755C15.597 4.64081 15.5206 4.37251 15.514 4.098C15.499 3.718 15.463 3.458 15.369 3.235C15.2673 2.99174 15.1188 2.77088 14.9317 2.58506C14.7447 2.39923 14.5229 2.25208 14.279 2.152ZM12.5 15C14.17 15 15.523 13.657 15.523 12C15.523 10.343 14.169 9 12.5 9C10.83 9 9.477 10.343 9.477 12C9.477 13.657 10.831 15 12.5 15Z" fill="#0B0B0B" fill-opacity="0.6"/>
</g>
<defs>
<clipPath id="clip0_521_9853">
<rect width="24" height="24" fill="white"/>
</clipPath>
</defs>
</svg>
