<svg width="100%" height="100%" preserveAspectRatio="xMinYMin slice" viewBox="0 0 23 22" fill="none" xmlns="http://www.w3.org/2000/svg">
<path d="M9.3333 9.91675C9.53335 9.91614 9.72934 9.86015 9.89952 9.75498C10.0697 9.64981 10.2074 9.49957 10.2975 9.32092C10.426 9.06507 10.448 8.76875 10.3586 8.49674C10.2693 8.22472 10.0759 7.99912 9.8208 7.86925L7.65413 6.78591C7.52648 6.70911 7.38437 6.65945 7.23666 6.64005C7.08896 6.62065 6.93884 6.63192 6.79569 6.67316C6.65254 6.7144 6.51943 6.78473 6.40469 6.87973C6.28994 6.97474 6.19603 7.09239 6.12881 7.22534C6.06159 7.35828 6.02251 7.50366 6.01402 7.6524C6.00552 7.80113 6.0278 7.95001 6.07944 8.08974C6.13109 8.22948 6.211 8.35706 6.31419 8.46451C6.41737 8.57196 6.54161 8.65698 6.67913 8.71425L8.8458 9.79758C8.99564 9.87779 9.16335 9.91878 9.3333 9.91675ZM11.5 0.166748C9.35733 0.166748 7.26282 0.802112 5.48129 1.99249C3.69975 3.18288 2.31122 4.87481 1.49127 6.85434C0.67132 8.83388 0.456784 11.0121 0.87479 13.1136C1.2928 15.215 2.32457 17.1453 3.83964 18.6604C5.35471 20.1755 7.28503 21.2073 9.38649 21.6253C11.4879 22.0433 13.6662 21.8287 15.6457 21.0088C17.6252 20.1888 19.3172 18.8003 20.5076 17.0188C21.6979 15.2372 22.3333 13.1427 22.3333 11.0001C22.3333 9.57743 22.0531 8.1687 21.5087 6.85434C20.9642 5.53998 20.1663 4.34573 19.1603 3.33976C18.1543 2.33379 16.9601 1.53581 15.6457 0.991387C14.3313 0.446961 12.9226 0.166748 11.5 0.166748ZM11.5 19.6667C9.78586 19.6667 8.11025 19.1585 6.68502 18.2062C5.2598 17.2538 4.14897 15.9003 3.49301 14.3167C2.83705 12.733 2.66542 10.9905 2.99983 9.3093C3.33423 7.62813 4.15965 6.08388 5.37171 4.87182C6.58376 3.65977 8.12801 2.83435 9.80918 2.49994C11.4904 2.16554 13.2329 2.33717 14.8166 2.99313C16.4002 3.64909 17.7537 4.75991 18.706 6.18514C19.6583 7.61037 20.1666 9.28598 20.1666 11.0001C20.1666 13.2986 19.2535 15.503 17.6282 17.1283C16.0029 18.7537 13.7985 19.6667 11.5 19.6667ZM7.55663 14.6076C7.33827 14.791 7.20103 15.0531 7.17466 15.337C7.1483 15.6209 7.23494 15.9038 7.4158 16.1242C7.50674 16.2339 7.61843 16.3246 7.74448 16.3911C7.87052 16.4576 8.00844 16.4985 8.15033 16.5116C8.29222 16.5247 8.4353 16.5096 8.57137 16.4673C8.70744 16.425 8.83383 16.3563 8.9433 16.2651C9.66749 15.6812 10.5697 15.3628 11.5 15.3628C12.4302 15.3628 13.3324 15.6812 14.0566 16.2651C14.2515 16.4266 14.4968 16.5147 14.75 16.5142C14.9705 16.5121 15.1851 16.4426 15.3652 16.3152C15.5452 16.1878 15.682 16.0085 15.7574 15.8012C15.8328 15.5939 15.8431 15.3686 15.7869 15.1553C15.7308 14.942 15.6109 14.7509 15.4433 14.6076C14.3254 13.709 12.9342 13.2192 11.5 13.2192C10.0657 13.2192 8.6745 13.709 7.55663 14.6076ZM15.3458 6.78591L13.1791 7.86925C12.924 7.99912 12.7306 8.22472 12.6413 8.49674C12.552 8.76875 12.574 9.06507 12.7025 9.32092C12.7925 9.49957 12.9302 9.64981 13.1004 9.75498C13.2706 9.86015 13.4666 9.91614 13.6666 9.91675C13.8366 9.91878 14.0043 9.87779 14.1541 9.79758L16.3208 8.71425C16.5552 8.57322 16.7275 8.34875 16.8033 8.0859C16.879 7.82305 16.8525 7.54129 16.729 7.29718C16.6056 7.05307 16.3944 6.86469 16.1378 6.76986C15.8813 6.67503 15.5983 6.68076 15.3458 6.78591Z" fill="#001" fill-opacity="1"/>
</svg>
