<svg width="100%" height="100%" preserveAspectRatio="xMinYMin slice" viewBox="0 0 23 22" fill="none" xmlns="http://www.w3.org/2000/svg">
<path d="M7.55663 14.6076C7.33827 14.791 7.20103 15.0531 7.17466 15.337C7.1483 15.6209 7.23494 15.9038 7.4158 16.1242C7.50674 16.2339 7.61843 16.3246 7.74448 16.3911C7.87052 16.4576 8.00844 16.4985 8.15033 16.5116C8.29222 16.5247 8.4353 16.5096 8.57137 16.4673C8.70744 16.425 8.83383 16.3563 8.9433 16.2651C9.66749 15.6812 10.5697 15.3628 11.5 15.3628C12.4302 15.3628 13.3324 15.6812 14.0566 16.2651C14.1661 16.3563 14.2925 16.425 14.4286 16.4673C14.5646 16.5096 14.7077 16.5247 14.8496 16.5116C14.9915 16.4985 15.1294 16.4576 15.2555 16.3911C15.3815 16.3246 15.4932 16.2339 15.5841 16.1242C15.765 15.9038 15.8516 15.6209 15.8253 15.337C15.7989 15.0531 15.6617 14.791 15.4433 14.6076C14.3254 13.709 12.9342 13.2192 11.5 13.2192C10.0657 13.2192 8.6745 13.709 7.55663 14.6076ZM8.24996 9.91675C8.46423 9.91675 8.67368 9.85321 8.85183 9.73417C9.02999 9.61514 9.16884 9.44594 9.25083 9.24799C9.33283 9.05004 9.35428 8.83221 9.31248 8.62207C9.27068 8.41192 9.1675 8.21889 9.016 8.06738C8.86449 7.91588 8.67146 7.8127 8.46131 7.7709C8.25117 7.7291 8.03334 7.75055 7.83539 7.83255C7.63744 7.91454 7.46824 8.05339 7.34921 8.23155C7.23017 8.4097 7.16663 8.61915 7.16663 8.83342C7.16663 9.12073 7.28077 9.39628 7.48393 9.59945C7.6871 9.80261 7.96265 9.91675 8.24996 9.91675ZM11.5 0.166748C9.35733 0.166748 7.26282 0.802112 5.48129 1.99249C3.69975 3.18288 2.31122 4.87481 1.49127 6.85434C0.67132 8.83388 0.456784 11.0121 0.87479 13.1136C1.2928 15.215 2.32457 17.1453 3.83964 18.6604C5.35471 20.1755 7.28503 21.2073 9.38649 21.6253C11.4879 22.0433 13.6662 21.8287 15.6457 21.0088C17.6252 20.1888 19.3172 18.8003 20.5076 17.0188C21.6979 15.2372 22.3333 13.1427 22.3333 11.0001C22.3333 9.57743 22.0531 8.1687 21.5087 6.85434C20.9642 5.53998 20.1663 4.34573 19.1603 3.33976C18.1543 2.33379 16.9601 1.53581 15.6457 0.991387C14.3313 0.446961 12.9226 0.166748 11.5 0.166748ZM11.5 19.6667C9.78586 19.6667 8.11025 19.1585 6.68502 18.2062C5.2598 17.2538 4.14897 15.9003 3.49301 14.3167C2.83705 12.733 2.66542 10.9905 2.99983 9.3093C3.33423 7.62813 4.15965 6.08388 5.37171 4.87182C6.58376 3.65977 8.12801 2.83435 9.80918 2.49994C11.4904 2.16554 13.2329 2.33717 14.8166 2.99313C16.4002 3.64909 17.7537 4.75991 18.706 6.18514C19.6583 7.61037 20.1666 9.28598 20.1666 11.0001C20.1666 13.2986 19.2535 15.503 17.6282 17.1283C16.0029 18.7537 13.7985 19.6667 11.5 19.6667ZM14.75 7.75008C14.5357 7.75008 14.3263 7.81362 14.1481 7.93266C13.9699 8.05169 13.8311 8.22089 13.7491 8.41884C13.6671 8.61679 13.6456 8.83462 13.6874 9.04476C13.7292 9.25491 13.8324 9.44794 13.9839 9.59945C14.1354 9.75095 14.3285 9.85413 14.5386 9.89593C14.7488 9.93773 14.9666 9.91628 15.1645 9.83428C15.3625 9.75229 15.5317 9.61344 15.6507 9.43528C15.7698 9.25713 15.8333 9.04768 15.8333 8.83342C15.8333 8.5461 15.7192 8.27055 15.516 8.06738C15.3128 7.86422 15.0373 7.75008 14.75 7.75008Z" fill="#001" fill-opacity="1"/>
</svg>
