<svg width="100%" height="100%" preserveAspectRatio="xMinYMin slice" viewBox="0 0 23 22" fill="none" xmlns="http://www.w3.org/2000/svg">
<path d="M8.25 7.75H8.26083M14.75 7.75H14.7608M1.75 11C1.75 12.2804 2.00219 13.5482 2.49217 14.7312C2.98216 15.9141 3.70034 16.9889 4.60571 17.8943C5.51108 18.7997 6.58591 19.5178 7.76884 20.0078C8.95176 20.4978 10.2196 20.75 11.5 20.75C12.7804 20.75 14.0482 20.4978 15.2312 20.0078C16.4141 19.5178 17.4889 18.7997 18.3943 17.8943C19.2997 16.9889 20.0178 15.9141 20.5078 14.7312C20.9978 13.5482 21.25 12.2804 21.25 11C21.25 9.71961 20.9978 8.45176 20.5078 7.26884C20.0178 6.08591 19.2997 5.01108 18.3943 4.10571C17.4889 3.20034 16.4141 2.48216 15.2312 1.99217C14.0482 1.50219 12.7804 1.25 11.5 1.25C10.2196 1.25 8.95176 1.50219 7.76884 1.99217C6.58591 2.48216 5.51108 3.20034 4.60571 4.10571C3.70034 5.01108 2.98216 6.08591 2.49217 7.26884C2.00219 8.45176 1.75 9.71961 1.75 11Z" stroke="#001" stroke-opacity="1" stroke-width="2" stroke-linecap="round" stroke-linejoin="round"/>
<path d="M7.16663 12.0833C7.16663 13.2325 7.62317 14.3347 8.43583 15.1474C9.24849 15.96 10.3507 16.4166 11.5 16.4166C12.6492 16.4166 13.7514 15.96 14.5641 15.1474C15.3767 14.3347 15.8333 13.2325 15.8333 12.0833H7.16663Z" stroke="#001" stroke-opacity="1" stroke-width="2" stroke-linecap="round" stroke-linejoin="round"/>
</svg>
