<svg width="100%" height="100%" preserveAspectRatio="xMinYMin slice" viewBox="0 0 23 22" fill="none" xmlns="http://www.w3.org/2000/svg">
<path d="M8.24996 9.91667C8.53728 9.91667 8.81283 9.80253 9.01599 9.59937C9.21916 9.3962 9.33329 9.12065 9.33329 8.83333C9.33329 8.54602 9.21916 8.27047 9.01599 8.0673C8.81283 7.86414 8.53728 7.75 8.24996 7.75C7.96264 7.75 7.68709 7.86414 7.48393 8.0673C7.28076 8.27047 7.16663 8.54602 7.16663 8.83333C7.16663 9.12065 7.28076 9.3962 7.48393 9.59937C7.68709 9.80253 7.96264 9.91667 8.24996 9.91667ZM8.24996 14.25C7.96264 14.25 7.68709 14.3641 7.48393 14.5673C7.28076 14.7705 7.16663 15.046 7.16663 15.3333C7.16663 15.6207 7.28076 15.8962 7.48393 16.0994C7.68709 16.3025 7.96264 16.4167 8.24996 16.4167H14.75C15.0373 16.4167 15.3128 16.3025 15.516 16.0994C15.7192 15.8962 15.8333 15.6207 15.8333 15.3333C15.8333 15.046 15.7192 14.7705 15.516 14.5673C15.3128 14.3641 15.0373 14.25 14.75 14.25H8.24996ZM15.8333 8.83333C15.8333 9.12065 15.7192 9.3962 15.516 9.59937C15.3128 9.80253 15.0373 9.91667 14.75 9.91667C14.4626 9.91667 14.1871 9.80253 13.9839 9.59937C13.7808 9.3962 13.6666 9.12065 13.6666 8.83333C13.6666 8.54602 13.7808 8.27047 13.9839 8.0673C14.1871 7.86414 14.4626 7.75 14.75 7.75C15.0373 7.75 15.3128 7.86414 15.516 8.0673C15.7192 8.27047 15.8333 8.54602 15.8333 8.83333Z" fill="#001" fill-opacity="1"/>
<path fill-rule="evenodd" clip-rule="evenodd" d="M22.3333 11.0001C22.3333 16.9833 17.4832 21.8334 11.5 21.8334C5.51671 21.8334 0.666626 16.9833 0.666626 11.0001C0.666626 5.01683 5.51671 0.166748 11.5 0.166748C17.4832 0.166748 22.3333 5.01683 22.3333 11.0001ZM20.1666 11.0001C20.1666 13.2986 19.2535 15.503 17.6282 17.1283C16.0029 18.7537 13.7985 19.6667 11.5 19.6667C9.20142 19.6667 6.99702 18.7537 5.3717 17.1283C3.74639 15.503 2.83329 13.2986 2.83329 11.0001C2.83329 8.70154 3.74639 6.49714 5.3717 4.87182C6.99702 3.24651 9.20142 2.33341 11.5 2.33341C13.7985 2.33341 16.0029 3.24651 17.6282 4.87182C19.2535 6.49714 20.1666 8.70154 20.1666 11.0001Z" fill="#001" fill-opacity="1"/>
</svg>
