<svg width="12" height="12" viewBox="0 0 12 12" fill="none" xmlns="http://www.w3.org/2000/svg">
<path d="M5.33329 3.83324V6.28658C5.33329 6.51991 5.45996 6.73991 5.65996 6.85991L7.73995 8.09324C7.97995 8.23324 8.28662 8.15324 8.42662 7.91991C8.56662 7.67991 8.49329 7.37324 8.25329 7.23324L6.33996 6.09324V3.82658C6.33329 3.55991 6.10662 3.33324 5.83329 3.33324C5.55996 3.33324 5.33329 3.55991 5.33329 3.83324ZM12 4.33324V0.806576C12 0.506576 11.64 0.359909 11.4333 0.573242L10.2466 1.75991C9.62213 1.13539 8.8676 0.65626 8.03679 0.356658C7.20597 0.0570572 6.31931 -0.0556463 5.43996 0.0265759C2.64662 0.279909 0.346622 2.52658 0.0399553 5.31991C-0.12215 6.88616 0.337944 8.45336 1.32098 9.68342C2.30402 10.9135 3.7312 11.7078 5.29465 11.895C6.85809 12.0823 8.43248 11.6474 9.67817 10.6842C10.9239 9.72106 11.741 8.30681 11.9533 6.74658C12 6.34658 11.6866 5.99991 11.2866 5.99991C10.9533 5.99991 10.6733 6.24658 10.6333 6.57324C10.3466 8.89991 8.33995 10.6999 5.93329 10.6666C3.45995 10.6332 1.37329 8.54658 1.33329 6.06658C1.29329 3.46658 3.40662 1.33324 5.99996 1.33324C7.28662 1.33324 8.45329 1.85991 9.29996 2.69991L7.90662 4.09324C7.69329 4.30658 7.83995 4.66658 8.13995 4.66658H11.6666C11.8533 4.66658 12 4.51991 12 4.33324Z" fill="#118ED1"/>
</svg>
