<svg width="12" height="14" viewBox="0 0 12 14" fill="none" xmlns="http://www.w3.org/2000/svg">
<path d="M6.69988 5.46604C6.79613 5.17729 7.20388 5.17729 7.30013 5.46604L7.8645 7.16091C7.98873 7.53349 8.19803 7.87201 8.47581 8.14964C8.7536 8.42727 9.09223 8.63639 9.46488 8.76041L11.1589 9.32479C11.4476 9.42104 11.4476 9.82879 11.1589 9.92504L9.464 10.4894C9.09143 10.6136 8.75291 10.8229 8.47527 11.1007C8.19764 11.3785 7.98852 11.7171 7.8645 12.0898L7.30013 13.7838C7.27938 13.847 7.23919 13.9021 7.18529 13.9411C7.1314 13.9801 7.06655 14.0012 7 14.0012C6.93346 14.0012 6.86861 13.9801 6.81471 13.9411C6.76082 13.9021 6.72063 13.847 6.69988 13.7838L6.1355 12.0889C6.01136 11.7164 5.8022 11.378 5.52457 11.1003C5.24694 10.8227 4.90848 10.6135 4.536 10.4894L2.84113 9.92504C2.7779 9.90429 2.72284 9.86409 2.6838 9.8102C2.64477 9.7563 2.62375 9.69146 2.62375 9.62491C2.62375 9.55836 2.64477 9.49352 2.6838 9.43962C2.72284 9.38573 2.7779 9.34554 2.84113 9.32479L4.536 8.76041C4.90848 8.63627 5.24694 8.42711 5.52457 8.14948C5.8022 7.87185 6.01136 7.53339 6.1355 7.16091L6.69988 5.46604ZM3.31975 1.00441C3.3323 0.966518 3.35647 0.933544 3.38883 0.910172C3.42119 0.886801 3.46009 0.874222 3.5 0.874222C3.53992 0.874222 3.57882 0.886801 3.61118 0.910172C3.64353 0.933544 3.6677 0.966518 3.68025 1.00441L4.01888 2.02116C4.17025 2.47441 4.5255 2.82966 4.97875 2.98104L5.9955 3.31966C6.03339 3.33221 6.06637 3.35638 6.08974 3.38874C6.11311 3.42109 6.12569 3.46 6.12569 3.49991C6.12569 3.53983 6.11311 3.57873 6.08974 3.61109C6.06637 3.64344 6.03339 3.66761 5.9955 3.68016L4.97875 4.01879C4.75521 4.09326 4.55209 4.21878 4.38548 4.38539C4.21887 4.552 4.09335 4.75512 4.01888 4.97866L3.68025 5.99541C3.6677 6.0333 3.64353 6.06628 3.61118 6.08965C3.57882 6.11302 3.53992 6.1256 3.5 6.1256C3.46009 6.1256 3.42119 6.11302 3.38883 6.08965C3.35647 6.06628 3.3323 6.0333 3.31975 5.99541L2.98113 4.97866C2.90665 4.75512 2.78113 4.552 2.61452 4.38539C2.44792 4.21878 2.24479 4.09326 2.02125 4.01879L1.0045 3.68016C0.96661 3.66761 0.933635 3.64344 0.910264 3.61109C0.886893 3.57873 0.874313 3.53983 0.874313 3.49991C0.874313 3.46 0.886893 3.42109 0.910264 3.38874C0.933635 3.35638 0.96661 3.33221 1.0045 3.31966L2.02125 2.98104C2.24479 2.90656 2.44792 2.78104 2.61452 2.61443C2.78113 2.44782 2.90665 2.2447 2.98113 2.02116L3.31975 1.00441ZM9.50513 0.0865355C9.51376 0.061621 9.52995 0.0400169 9.55143 0.0247269C9.57292 0.00943687 9.59863 0.0012207 9.625 0.0012207C9.65137 0.0012207 9.67708 0.00943687 9.69857 0.0247269C9.72005 0.0400169 9.73624 0.061621 9.74488 0.0865355L9.97063 0.763786C10.0713 1.06654 10.3084 1.30366 10.6111 1.40429L11.2884 1.63004C11.3133 1.63867 11.3349 1.65486 11.3502 1.67634C11.3655 1.69783 11.3737 1.72354 11.3737 1.74991C11.3737 1.77628 11.3655 1.80199 11.3502 1.82348C11.3349 1.84496 11.3133 1.86115 11.2884 1.86979L10.6111 2.09554C10.4619 2.14517 10.3264 2.2289 10.2152 2.34008C10.104 2.45127 10.0203 2.58684 9.97063 2.73604L9.74488 3.41329C9.73624 3.4382 9.72005 3.4598 9.69857 3.47509C9.67708 3.49038 9.65137 3.4986 9.625 3.4986C9.59863 3.4986 9.57292 3.49038 9.55143 3.47509C9.52995 3.4598 9.51376 3.4382 9.50513 3.41329L9.27938 2.73604C9.22974 2.58684 9.14601 2.45127 9.03483 2.34008C8.92365 2.2289 8.78807 2.14517 8.63888 2.09554L7.9625 1.86979C7.93759 1.86115 7.91598 1.84496 7.90069 1.82348C7.8854 1.80199 7.87719 1.77628 7.87719 1.74991C7.87719 1.72354 7.8854 1.69783 7.90069 1.67634C7.91598 1.65486 7.93759 1.63867 7.9625 1.63004L8.63975 1.40429C8.9425 1.30366 9.17963 1.06654 9.28025 0.763786L9.50513 0.0874105V0.0865355Z" fill="#0B0B0B" fill-opacity="0.6"/>
</svg>
