<svg width="25" height="24" viewBox="0 0 25 24" fill="none" xmlns="http://www.w3.org/2000/svg">
<g id="star-06">
<path id="ai-rewrite-icon" d="M4.86475 22V17M4.86475 7V2M2.36475 4.5H7.36475M2.36475 19.5H7.36475M13.3647 3L11.6306 7.50886C11.3486 8.24209 11.2076 8.60871 10.9883 8.91709C10.7939 9.1904 10.5551 9.42919 10.2818 9.62353C9.97345 9.84281 9.60684 9.98381 8.87361 10.2658L4.36475 12L8.87361 13.7342C9.60684 14.0162 9.97345 14.1572 10.2818 14.3765C10.5551 14.5708 10.7939 14.8096 10.9883 15.0829C11.2076 15.3913 11.3486 15.7579 11.6306 16.4911L13.3647 21L15.0989 16.4911C15.3809 15.7579 15.5219 15.3913 15.7412 15.0829C15.9356 14.8096 16.1743 14.5708 16.4477 14.3765C16.756 14.1572 17.1227 14.0162 17.8559 13.7342L22.3647 12L17.8559 10.2658C17.1227 9.98381 16.756 9.8428 16.4477 9.62353C16.1743 9.42919 15.9356 9.1904 15.7412 8.91709C15.5219 8.60871 15.3809 8.24209 15.0989 7.50886L13.3647 3Z" stroke="#000" stroke-width="1.6" stroke-linecap="round" stroke-linejoin="round"/>
</g>
</svg>
