<svg width="390" height="394" viewBox="0 0 390 394" fill="none" xmlns="http://www.w3.org/2000/svg">
<g filter="url(#filter0_d_521_9500)">
<path d="M251.962 139.472L249.314 145.476L243.489 148.205L249.314 150.935L251.962 156.939L254.61 150.935L260.435 148.205L254.61 145.476" fill="white"/>
</g>
<g clip-path="url(#clip0_521_9500)">
<rect x="123.048" y="123.048" width="143.904" height="143.904" rx="71.9519" fill="url(#paint0_linear_521_9500)"/>
<g opacity="0.1">
<path fill-rule="evenodd" clip-rule="evenodd" d="M123.048 211.172V195L194.998 235.43L223.78 219.258V235.43L194.998 251.602L123.048 211.172ZM166.217 186.914L194.998 170.742L266.952 211.172V227.344L223.78 203.086L194.998 219.258L166.217 203.086L123.048 178.828V162.656L166.217 186.914ZM180.608 195L194.998 203.086L209.389 195L194.998 186.914L180.608 195ZM266.952 178.828V195L194.998 154.57L166.217 170.742V154.57L194.998 138.398L266.952 178.828Z" fill="#FAFAFA"/>
</g>
<g filter="url(#filter1_d_521_9500)">
<path d="M230.81 206.903C229.148 205.745 227.184 205.316 225.452 204.939C224.811 204.792 224.177 205.206 224.038 205.847C223.898 206.487 224.304 207.121 224.946 207.26C226.534 207.607 228.178 207.966 229.452 208.853C230.436 209.539 231.37 210.855 231.09 212.125C230.688 213.95 228.076 214.761 226.553 215.083C221.195 216.216 215.545 216.165 210.086 216.119C206.928 216.093 203.661 216.065 200.446 216.26C198.069 216.405 195.586 216.723 193.531 218.055C191.411 219.429 189.705 222.373 190.719 225.122C190.915 225.653 191.185 226.109 191.446 226.551C191.779 227.117 192.067 227.606 192.082 228.056C192.102 228.659 191.587 229.245 191.07 229.558C190.359 229.987 189.446 230.162 188.492 230.318C178.973 231.879 168.375 232.144 159.202 231.068C159.652 228.74 160.494 226.202 161.754 223.36C163.743 223.315 165.932 223.056 168.287 222.572C175.168 221.193 182.061 218.103 188.205 213.635C190.452 212.018 192.65 210.319 194.742 208.572C194.932 208.417 195.003 208.156 194.932 207.918C194.849 207.692 194.635 207.526 194.385 207.514C192.317 207.443 189.441 207.027 186.506 205.684C189.857 205.743 195.812 205.387 201.088 202.903C201.148 202.879 201.195 202.843 201.243 202.796C204.879 199.337 208.267 195.653 211.321 191.85C211.464 191.684 211.487 191.434 211.392 191.232C211.297 191.03 211.095 190.887 210.869 190.887C208.968 190.864 205.509 190.531 201.992 188.772C205.2 188.546 211.487 187.904 215.386 186.312C215.492 186.276 215.576 186.205 215.647 186.11C219.64 180.405 222.932 174.498 225.452 168.556C225.523 168.39 225.511 168.2 225.428 168.033C225.333 167.879 225.19 167.772 225.012 167.736C222.944 167.356 220.864 167.296 219.319 167.344C221.934 166.013 224.477 165.573 226.319 165.454C226.545 165.43 226.747 165.288 226.83 165.062C228.459 160.688 228.982 158.062 228.993 157.955C229.053 157.67 228.898 157.396 228.637 157.289C228.304 157.159 220.365 154.057 207.981 157.587C207.863 157.622 207.767 157.682 207.696 157.777C205.284 160.593 203.572 164.337 202.621 166.773C202.514 164.634 202.716 162.424 203.228 160.201C203.287 159.987 203.204 159.761 203.037 159.619C202.871 159.476 202.633 159.441 202.431 159.524C197.939 161.39 193.458 163.957 189.109 167.154C189.037 167.201 188.99 167.273 188.942 167.344C186.886 170.981 186.256 176.043 186.066 179.098C185.234 176.887 184.747 174.498 184.604 171.967C184.592 171.741 184.45 171.539 184.248 171.456C184.034 171.361 183.796 171.408 183.618 171.551C181.039 173.797 178.412 176.364 175.798 179.169C175.762 179.205 175.738 179.24 175.715 179.288C173.635 182.925 173.017 188.035 172.827 191.089C172.185 189.39 171.745 187.571 171.507 185.67C171.484 185.432 171.317 185.23 171.091 185.171C170.854 185.111 170.616 185.183 170.462 185.361C167.526 188.986 164.602 192.967 161.774 197.234C159.005 201.37 157.258 205.862 156.699 210.212C156.081 215.025 156.889 218.353 157.804 220.421C173.789 185.801 201.409 175.568 201.682 175.473C202.301 175.247 202.978 175.568 203.204 176.186C203.43 176.804 203.109 177.481 202.491 177.707C202.217 177.802 175.453 187.762 159.92 221.514C159.706 221.989 159.504 222.465 159.326 222.916C159.332 222.924 159.338 222.93 159.345 222.937C157.912 226.261 157.029 229.21 156.65 231.931C156.559 232.581 157.012 233.181 157.663 233.272C157.666 233.272 157.668 233.272 157.671 233.273C161.822 233.823 166.288 234.096 170.84 234.096C176.884 234.096 183.078 233.614 188.876 232.664C190.021 232.477 191.226 232.24 192.3 231.591C193.676 230.758 194.503 229.374 194.456 227.978C194.423 226.921 193.928 226.083 193.493 225.344C193.276 224.976 193.072 224.629 192.95 224.298C192.384 222.766 193.458 220.935 194.824 220.049C196.498 218.965 198.679 218.749 200.591 218.632C203.724 218.442 206.948 218.47 210.067 218.496C215.654 218.544 221.434 218.594 227.044 217.409C230.692 216.639 232.893 214.988 233.411 212.635C233.929 210.286 232.478 208.064 230.81 206.903Z" fill="#EEEEEE"/>
</g>
</g>
<circle cx="195" cy="195" r="123.719" stroke="#A7CAF1" stroke-opacity="0.14" stroke-width="7"/>
<circle cx="195" cy="195" r="140.664" stroke="#A7CAF1" stroke-opacity="0.1" stroke-width="7"/>
<circle cx="195" cy="195" r="157.61" stroke="#A7CAF1" stroke-opacity="0.06" stroke-width="7"/>
<circle cx="195" cy="195" r="174.555" stroke="#A7CAF1" stroke-opacity="0.04" stroke-width="7"/>
<circle cx="195" cy="195" r="191.5" stroke="#A7CAF1" stroke-opacity="0.02" stroke-width="7"/>
<g filter="url(#filter2_d_521_9500)">
<circle cx="195" cy="195" r="96.5214" stroke="#B1CFF0" stroke-opacity="0.3" stroke-width="3" shape-rendering="crispEdges"/>
</g>
<g filter="url(#filter3_d_521_9500)">
<path d="M76.9051 207.513L72.0985 218.088L61.524 222.894L72.0985 227.701L76.9051 238.275L81.7116 227.701L92.2861 222.894L81.7116 218.088" fill="white"/>
</g>
<g filter="url(#filter4_d_521_9500)">
<path d="M57.4833 87.8545L55.08 93.1417L49.7928 95.545L55.08 97.9483L57.4833 103.236L59.8866 97.9483L65.1738 95.545L59.8866 93.1417" fill="white"/>
</g>
<g filter="url(#filter5_d_521_9500)">
<path d="M281.942 348.289L279.539 353.576L274.251 355.98L279.539 358.383L281.942 363.67L284.345 358.383L289.632 355.98L284.345 353.576" fill="white"/>
</g>
<defs>
<filter id="filter0_d_521_9500" x="213.489" y="109.472" width="76.9452" height="77.4668" filterUnits="userSpaceOnUse" color-interpolation-filters="sRGB">
<feFlood flood-opacity="0" result="BackgroundImageFix"/>
<feColorMatrix in="SourceAlpha" type="matrix" values="0 0 0 0 0 0 0 0 0 0 0 0 0 0 0 0 0 0 127 0" result="hardAlpha"/>
<feOffset/>
<feGaussianBlur stdDeviation="15"/>
<feComposite in2="hardAlpha" operator="out"/>
<feColorMatrix type="matrix" values="0 0 0 0 1 0 0 0 0 1 0 0 0 0 1 0 0 0 1 0"/>
<feBlend mode="normal" in2="BackgroundImageFix" result="effect1_dropShadow_521_9500"/>
<feBlend mode="normal" in="SourceGraphic" in2="effect1_dropShadow_521_9500" result="shape"/>
</filter>
<filter id="filter1_d_521_9500" x="144.482" y="155.905" width="101.035" height="102.191" filterUnits="userSpaceOnUse" color-interpolation-filters="sRGB">
<feFlood flood-opacity="0" result="BackgroundImageFix"/>
<feColorMatrix in="SourceAlpha" type="matrix" values="0 0 0 0 0 0 0 0 0 0 0 0 0 0 0 0 0 0 127 0" result="hardAlpha"/>
<feOffset dy="12"/>
<feGaussianBlur stdDeviation="6"/>
<feComposite in2="hardAlpha" operator="out"/>
<feColorMatrix type="matrix" values="0 0 0 0 0 0 0 0 0 0 0 0 0 0 0 0 0 0 0.25 0"/>
<feBlend mode="normal" in2="BackgroundImageFix" result="effect1_dropShadow_521_9500"/>
<feBlend mode="normal" in="SourceGraphic" in2="effect1_dropShadow_521_9500" result="shape"/>
</filter>
<filter id="filter2_d_521_9500" x="81.9786" y="81.9785" width="226.043" height="226.043" filterUnits="userSpaceOnUse" color-interpolation-filters="sRGB">
<feFlood flood-opacity="0" result="BackgroundImageFix"/>
<feColorMatrix in="SourceAlpha" type="matrix" values="0 0 0 0 0 0 0 0 0 0 0 0 0 0 0 0 0 0 127 0" result="hardAlpha"/>
<feOffset/>
<feGaussianBlur stdDeviation="7.5"/>
<feComposite in2="hardAlpha" operator="out"/>
<feColorMatrix type="matrix" values="0 0 0 0 1 0 0 0 0 1 0 0 0 0 1 0 0 0 0.3 0"/>
<feBlend mode="normal" in2="BackgroundImageFix" result="effect1_dropShadow_521_9500"/>
<feBlend mode="normal" in="SourceGraphic" in2="effect1_dropShadow_521_9500" result="shape"/>
</filter>
<filter id="filter3_d_521_9500" x="31.524" y="177.513" width="90.762" height="90.7622" filterUnits="userSpaceOnUse" color-interpolation-filters="sRGB">
<feFlood flood-opacity="0" result="BackgroundImageFix"/>
<feColorMatrix in="SourceAlpha" type="matrix" values="0 0 0 0 0 0 0 0 0 0 0 0 0 0 0 0 0 0 127 0" result="hardAlpha"/>
<feOffset/>
<feGaussianBlur stdDeviation="15"/>
<feComposite in2="hardAlpha" operator="out"/>
<feColorMatrix type="matrix" values="0 0 0 0 1 0 0 0 0 1 0 0 0 0 1 0 0 0 1 0"/>
<feBlend mode="normal" in2="BackgroundImageFix" result="effect1_dropShadow_521_9500"/>
<feBlend mode="normal" in="SourceGraphic" in2="effect1_dropShadow_521_9500" result="shape"/>
</filter>
<filter id="filter4_d_521_9500" x="19.7928" y="57.8545" width="75.381" height="75.3809" filterUnits="userSpaceOnUse" color-interpolation-filters="sRGB">
<feFlood flood-opacity="0" result="BackgroundImageFix"/>
<feColorMatrix in="SourceAlpha" type="matrix" values="0 0 0 0 0 0 0 0 0 0 0 0 0 0 0 0 0 0 127 0" result="hardAlpha"/>
<feOffset/>
<feGaussianBlur stdDeviation="15"/>
<feComposite in2="hardAlpha" operator="out"/>
<feColorMatrix type="matrix" values="0 0 0 0 1 0 0 0 0 1 0 0 0 0 1 0 0 0 1 0"/>
<feBlend mode="normal" in2="BackgroundImageFix" result="effect1_dropShadow_521_9500"/>
<feBlend mode="normal" in="SourceGraphic" in2="effect1_dropShadow_521_9500" result="shape"/>
</filter>
<filter id="filter5_d_521_9500" x="244.251" y="318.289" width="75.381" height="75.3809" filterUnits="userSpaceOnUse" color-interpolation-filters="sRGB">
<feFlood flood-opacity="0" result="BackgroundImageFix"/>
<feColorMatrix in="SourceAlpha" type="matrix" values="0 0 0 0 0 0 0 0 0 0 0 0 0 0 0 0 0 0 127 0" result="hardAlpha"/>
<feOffset/>
<feGaussianBlur stdDeviation="15"/>
<feComposite in2="hardAlpha" operator="out"/>
<feColorMatrix type="matrix" values="0 0 0 0 1 0 0 0 0 1 0 0 0 0 1 0 0 0 1 0"/>
<feBlend mode="normal" in2="BackgroundImageFix" result="effect1_dropShadow_521_9500"/>
<feBlend mode="normal" in="SourceGraphic" in2="effect1_dropShadow_521_9500" result="shape"/>
</filter>
<linearGradient id="paint0_linear_521_9500" x1="123.048" y1="123.048" x2="261.086" y2="266.952" gradientUnits="userSpaceOnUse">
<stop stop-color="#00E8FF"/>
<stop offset="1" stop-color="#016DE0"/>
</linearGradient>
<clipPath id="clip0_521_9500">
<rect x="123.048" y="123.048" width="143.904" height="143.904" rx="71.9519" fill="white"/>
</clipPath>
</defs>
</svg>
