<svg width="17" height="17" viewBox="0 0 17 17" fill="none" xmlns="http://www.w3.org/2000/svg">
<g id="calendar-heart-01">
<path id="Icon" d="M14.5 5.83331H2.5M11.1667 1.83331V3.83331M5.83333 1.83331V3.83331M5.7 15.1666H11.3C12.4201 15.1666 12.9802 15.1666 13.408 14.9487C13.7843 14.7569 14.0903 14.451 14.282 14.0746C14.5 13.6468 14.5 13.0868 14.5 11.9666V6.36665C14.5 5.24654 14.5 4.68649 14.282 4.25867C14.0903 3.88234 13.7843 3.57638 13.408 3.38463C12.9802 3.16665 12.4201 3.16665 11.3 3.16665H5.7C4.5799 3.16665 4.01984 3.16665 3.59202 3.38463C3.21569 3.57638 2.90973 3.88234 2.71799 4.25867C2.5 4.68649 2.5 5.24654 2.5 6.36665V11.9666C2.5 13.0868 2.5 13.6468 2.71799 14.0746C2.90973 14.451 3.21569 14.7569 3.59202 14.9487C4.01984 15.1666 4.5799 15.1666 5.7 15.1666ZM8.49817 8.72038C7.96501 8.11438 7.07593 7.95137 6.40792 8.50628C5.73991 9.06119 5.64586 9.98897 6.17045 10.6453C6.55133 11.1218 7.60618 12.0598 8.15555 12.5379C8.27465 12.6416 8.3342 12.6934 8.40398 12.714C8.46442 12.7318 8.53192 12.7318 8.59237 12.714C8.66215 12.6934 8.7217 12.6416 8.84079 12.5379C9.39017 12.0598 10.445 11.1218 10.8259 10.6453C11.3505 9.98897 11.2679 9.05535 10.5884 8.50628C9.90893 7.95721 9.03133 8.11438 8.49817 8.72038Z" stroke="#475467" stroke-width="1.6" stroke-linecap="round" stroke-linejoin="round"/>
</g>
</svg>
