<svg width="16" height="17" viewBox="0 0 16 17" fill="none" xmlns="http://www.w3.org/2000/svg">
<g clip-path="url(#clip0_1608_5550)">
<path fill-rule="evenodd" clip-rule="evenodd" d="M10.4714 8.02876C10.5963 8.15378 10.6665 8.32332 10.6665 8.5001C10.6665 8.67687 10.5963 8.84641 10.4714 8.97143L6.70003 12.7428C6.63853 12.8064 6.56496 12.8572 6.48363 12.8922C6.40229 12.9271 6.31481 12.9455 6.22629 12.9463C6.13777 12.947 6.04999 12.9302 5.96806 12.8966C5.88613 12.8631 5.81169 12.8136 5.74909 12.751C5.6865 12.6884 5.637 12.614 5.60348 12.5321C5.56996 12.4501 5.55309 12.3623 5.55386 12.2738C5.55463 12.1853 5.57302 12.0978 5.60796 12.0165C5.6429 11.9352 5.69368 11.8616 5.75736 11.8001L9.05736 8.5001L5.75736 5.2001C5.63592 5.07436 5.56872 4.90596 5.57024 4.73116C5.57176 4.55637 5.64187 4.38916 5.76548 4.26555C5.88908 4.14195 6.05629 4.07183 6.23109 4.07031C6.40589 4.06879 6.57429 4.13599 6.70002 4.25743L10.4714 8.02876Z" fill="#0B0B0B" fill-opacity="0.6"/>
</g>
<defs>
<clipPath id="clip0_1608_5550">
<rect width="16" height="16" fill="white" transform="translate(0 16.5) rotate(-90)"/>
</clipPath>
</defs>
</svg>
