<svg
  width="25"
  height="24"
  viewBox="0 0 25 24"
  fill="none"
  xmlns="http://www.w3.org/2000/svg">
  <g id="face-smile">
    <path
      id="face-smile-path"
      d="M8.36523 14C8.36523 14 9.86523 16 12.3652 16C14.8652 16 16.3652 14 16.3652 14M15.3652 9H15.3752M9.36523 9H9.37523M22.3652 12C22.3652 17.5228 17.8881 22 12.3652 22C6.84239 22 2.36523 17.5228 2.36523 12C2.36523 6.47715 6.84239 2 12.3652 2C17.8881 2 22.3652 6.47715 22.3652 12ZM15.8652 9C15.8652 9.27614 15.6414 9.5 15.3652 9.5C15.0891 9.5 14.8652 9.27614 14.8652 9C14.8652 8.72386 15.0891 8.5 15.3652 8.5C15.6414 8.5 15.8652 8.72386 15.8652 9ZM9.86523 9C9.86523 9.27614 9.64138 9.5 9.36523 9.5C9.08909 9.5 8.86523 9.27614 8.86523 9C8.86523 8.72386 9.08909 8.5 9.36523 8.5C9.64138 8.5 9.86523 8.72386 9.86523 9Z"
      stroke="#000"
      stroke-width="stroke-width-value"
      stroke-linecap="round"
      stroke-linejoin="round"
    />
  </g>
</svg>
