<svg width="16" height="16" viewBox="0 0 16 16" fill="none" xmlns="http://www.w3.org/2000/svg">
<g clip-path="url(#clip0_521_9821)">
<path d="M5.87537 7.74125C6.18004 7.48792 6.48737 7.48792 6.79937 7.74859L6.87137 7.81392L10.1954 11.1379L10.258 11.1933C10.3863 11.2927 10.5465 11.3419 10.7084 11.3317C10.8704 11.3215 11.0231 11.2525 11.1379 11.1377C11.2526 11.023 11.3216 10.8703 11.3318 10.7083C11.342 10.5463 11.2928 10.3862 11.1934 10.2579L11.138 10.1953L10.2767 9.33325L10.4714 9.13792L10.542 9.07458C10.8467 8.82125 11.154 8.82125 11.466 9.08192L11.538 9.14725L14.654 12.2639C14.5909 12.8988 14.3023 13.4899 13.8405 13.9302C13.3788 14.3704 12.7745 14.6305 12.1374 14.6633L12 14.6666H4.00004C3.33865 14.6665 2.70087 14.4207 2.21055 13.9768C1.72022 13.533 1.41235 12.9227 1.34671 12.2646L5.80471 7.80458L5.87537 7.74125ZM12 1.33325C12.6842 1.33325 13.3422 1.59621 13.8379 2.06773C14.3336 2.53926 14.6292 3.18328 14.6634 3.86659L14.6667 3.99992V10.3899L12.4714 8.19525L12.3714 8.10392C11.534 7.37392 10.4714 7.37258 9.64071 8.09258L9.53804 8.18592L9.33337 8.38992L7.80471 6.86192L7.70471 6.77059C6.86737 6.04059 5.80471 6.03925 4.97404 6.75925L4.87137 6.85259L1.33337 10.3899V3.99992C1.33337 3.31576 1.59633 2.65777 2.06786 2.16204C2.53938 1.66632 3.1834 1.37079 3.86671 1.33659L4.00004 1.33325H12ZM10.0067 4.66658L9.92204 4.67125C9.76001 4.69053 9.61067 4.76856 9.50232 4.89056C9.39396 5.01257 9.33412 5.17008 9.33412 5.33325C9.33412 5.49643 9.39396 5.65394 9.50232 5.77594C9.61067 5.89795 9.76001 5.97598 9.92204 5.99525L10 5.99992L10.0847 5.99525C10.2467 5.97598 10.3961 5.89795 10.5044 5.77594C10.6128 5.65394 10.6726 5.49643 10.6726 5.33325C10.6726 5.17008 10.6128 5.01257 10.5044 4.89056C10.3961 4.76856 10.2467 4.69053 10.0847 4.67125L10.0067 4.66658Z" fill="#026AA2"/>
</g>
<defs>
<clipPath id="clip0_521_9821">
<rect width="16" height="16" fill="white"/>
</clipPath>
</defs>
</svg>
