<svg width="16" height="16" viewBox="0 0 16 16" fill="none" xmlns="http://www.w3.org/2000/svg">
<g clip-path="url(#clip0_521_9825)">
<path fill-rule="evenodd" clip-rule="evenodd" d="M7.99996 13.9999L8.47196 14.4706C8.41002 14.5328 8.33641 14.5821 8.25535 14.6158C8.1743 14.6494 8.0874 14.6668 7.99963 14.6668C7.91186 14.6668 7.82495 14.6494 7.7439 14.6158C7.66284 14.5821 7.58923 14.5328 7.52729 14.4706L7.52329 14.4659L7.51196 14.4546L7.47063 14.4126C7.23562 14.1705 7.00448 13.9247 6.77729 13.6753C6.20689 13.0502 5.66071 12.4035 5.13996 11.7366C4.54529 10.9699 3.93729 10.1033 3.47529 9.24725C3.02329 8.40792 2.66663 7.49859 2.66663 6.66659C2.66663 3.64059 5.06129 1.33325 7.99996 1.33325C10.9386 1.33325 13.3333 3.64059 13.3333 6.66659C13.3333 7.49859 12.9766 8.40792 12.5246 9.24659C12.0626 10.1039 11.4553 10.9699 10.86 11.7366C10.1315 12.6697 9.35354 13.563 8.52929 14.4126L8.48796 14.4546L8.47663 14.4659L8.47263 14.4699L7.99996 13.9999ZM7.99996 8.66659C8.53039 8.66659 9.0391 8.45587 9.41417 8.0808C9.78925 7.70573 9.99996 7.19702 9.99996 6.66659C9.99996 6.13615 9.78925 5.62744 9.41417 5.25237C9.0391 4.8773 8.53039 4.66659 7.99996 4.66659C7.46953 4.66659 6.96082 4.8773 6.58575 5.25237C6.21067 5.62744 5.99996 6.13615 5.99996 6.66659C5.99996 7.19702 6.21067 7.70573 6.58575 8.0808C6.96082 8.45587 7.46953 8.66659 7.99996 8.66659Z" fill="#026AA2"/>
</g>
<defs>
<clipPath id="clip0_521_9825">
<rect width="16" height="16" fill="white"/>
</clipPath>
</defs>
</svg>
