<svg width="13" height="13" viewBox="0 0 13 13" fill="none" xmlns="http://www.w3.org/2000/svg">
<g id="face-neutral" clip-path="url(#clip0_3929_10467)">
<path id="face-neutral-path" d="M4.5 8H8.5M8 5H8.005M5 5H5.005M11.5 6.5C11.5 9.26142 9.26142 11.5 6.5 11.5C3.73858 11.5 1.5 9.26142 1.5 6.5C1.5 3.73858 3.73858 1.5 6.5 1.5C9.26142 1.5 11.5 3.73858 11.5 6.5ZM8.25 5C8.25 5.13807 8.13807 5.25 8 5.25C7.86193 5.25 7.75 5.13807 7.75 5C7.75 4.86193 7.86193 4.75 8 4.75C8.13807 4.75 8.25 4.86193 8.25 5ZM5.25 5C5.25 5.13807 5.13807 5.25 5 5.25C4.86193 5.25 4.75 5.13807 4.75 5C4.75 4.86193 4.86193 4.75 5 4.75C5.13807 4.75 5.25 4.86193 5.25 5Z" stroke="#000" stroke-width="1.5" stroke-linecap="round" stroke-linejoin="round"/>
</g>
<defs>
<clipPath id="clip0_3929_10467">
<rect width="12" height="12" fill="white" transform="translate(0.5 0.5)"/>
</clipPath>
</defs>
</svg>
