<svg width="13" height="13" viewBox="0 0 13 13" fill="none" xmlns="http://www.w3.org/2000/svg">
<g id="face-sad" clip-path="url(#clip0_3929_10459)">
<path id="face-sad-icon" d="M8.5 8.5C8.5 8.5 7.75 7.5 6.5 7.5C5.25 7.5 4.5 8.5 4.5 8.5M9 5.12C8.8025 5.3625 8.5325 5.5 8.25 5.5C7.9675 5.5 7.705 5.3625 7.5 5.12M5.5 5.12C5.3025 5.3625 5.0325 5.5 4.75 5.5C4.4675 5.5 4.205 5.3625 4 5.12M11.5 6.5C11.5 9.26142 9.26142 11.5 6.5 11.5C3.73858 11.5 1.5 9.26142 1.5 6.5C1.5 3.73858 3.73858 1.5 6.5 1.5C9.26142 1.5 11.5 3.73858 11.5 6.5Z" stroke="#000" stroke-width="1.5" stroke-linecap="round" stroke-linejoin="round"/>
</g>
<defs>
<clipPath id="clip0_3929_10459">
<rect width="12" height="12" fill="white" transform="translate(0.5 0.5)"/>
</clipPath>
</defs>
</svg>
