<svg width="16" height="17" viewBox="0 0 16 17" fill="none" xmlns="http://www.w3.org/2000/svg">
<g id="file-heart-03">
<path id="Icon" d="M9.33268 2.013V4.76669C9.33268 5.14006 9.33268 5.32675 9.40534 5.46935C9.46926 5.5948 9.57125 5.69678 9.69669 5.7607C9.8393 5.83336 10.026 5.83336 10.3993 5.83336H13.153M9.33268 1.83331H5.86602C4.74591 1.83331 4.18586 1.83331 3.75803 2.0513C3.38171 2.24305 3.07575 2.54901 2.884 2.92533C2.66602 3.35316 2.66602 3.91321 2.66602 5.03331V11.9666C2.66602 13.0868 2.66602 13.6468 2.884 14.0746C3.07575 14.451 3.38171 14.7569 3.75803 14.9487C4.18586 15.1666 4.74591 15.1666 5.86602 15.1666H10.1327C11.2528 15.1666 11.8128 15.1666 12.2407 14.9487C12.617 14.7569 12.9229 14.451 13.1147 14.0746C13.3327 13.6468 13.3327 13.0868 13.3327 11.9666V5.83331L9.33268 1.83331ZM7.99752 8.38704C7.46436 7.78105 6.57528 7.61804 5.90727 8.17295C5.23925 8.72786 5.14521 9.65564 5.6698 10.3119C6.1944 10.9682 7.99752 12.5 7.99752 12.5C7.99752 12.5 9.80065 10.9682 10.3252 10.3119C10.8498 9.65564 10.7673 8.72202 10.0878 8.17295C9.40828 7.62387 8.53068 7.78105 7.99752 8.38704Z" stroke="#475467" stroke-width="1.6" stroke-linecap="round" stroke-linejoin="round"/>
</g>
</svg>
