<svg width="390" height="394" viewBox="0 0 390 394" fill="none" xmlns="http://www.w3.org/2000/svg">
<g filter="url(#filter0_d_4427_20745)">
<path d="M251.962 139.472L249.314 145.476L243.489 148.205L249.314 150.934L251.962 156.938L254.61 150.934L260.435 148.205L254.61 145.476" fill="white"/>
</g>
<g clip-path="url(#clip0_4427_20745)">
<rect x="123.048" y="123.048" width="143.904" height="143.904" rx="71.9519" fill="url(#paint0_linear_4427_20745)"/>
<g opacity="0.1">
<path fill-rule="evenodd" clip-rule="evenodd" d="M123.048 211.172V195L194.998 235.43L223.78 219.258V235.43L194.998 251.602L123.048 211.172ZM166.217 186.914L194.998 170.742L266.952 211.172V227.344L223.78 203.086L194.998 219.258L166.217 203.086L123.048 178.828V162.656L166.217 186.914ZM180.608 195L194.998 203.086L209.389 195L194.998 186.914L180.608 195ZM266.952 178.828V195L194.998 154.569L166.217 170.742V154.569L194.998 138.397L266.952 178.828Z" fill="#FAFAFA"/>
</g>
<path d="M169.32 201V170.386H168.88L159.589 176.907V170.489L169.346 163.657H175.997V201H169.32Z" fill="white"/>
<path d="M185.986 180.789C185.986 175.665 190.644 172.12 197.321 172.12C204.049 172.12 208.268 175.096 208.733 180.246H202.704C202.238 178.253 200.349 176.985 197.347 176.985C194.422 176.985 192.223 178.382 192.223 180.427C192.223 182.031 193.568 183.015 196.415 183.662L201.41 184.8C206.818 186.017 209.329 188.346 209.329 192.512C209.329 197.947 204.334 201.57 197.269 201.57C190.204 201.57 185.753 198.516 185.261 193.366H191.602C192.223 195.462 194.215 196.705 197.424 196.705C200.659 196.705 202.911 195.281 202.911 193.185C202.911 191.581 201.694 190.571 199.003 189.976L193.982 188.812C188.548 187.569 185.986 185.059 185.986 180.789Z" fill="white"/>
<path d="M217.662 165.753H224.054V172.87H230.109V177.994H224.054V191.891C224.054 194.686 225.244 195.928 227.936 195.928C228.841 195.928 229.333 195.876 230.109 195.799V200.819C229.178 201 227.987 201.13 226.745 201.13C220.25 201.13 217.662 198.93 217.662 193.444V177.994H213.185V172.87H217.662V165.753Z" fill="white"/>
<path d="M172.052 227.555H174.267C174.407 228.689 175.532 229.418 177.141 229.418C178.635 229.418 179.716 228.654 179.716 227.59C179.716 226.676 179.021 226.14 177.396 225.762L175.752 225.384C173.449 224.866 172.368 223.723 172.368 221.833C172.368 219.531 174.249 218.001 177.088 218.001C179.751 218.001 181.676 219.531 181.781 221.71H179.61C179.452 220.594 178.468 219.891 177.079 219.891C175.62 219.891 174.653 220.594 174.653 221.675C174.653 222.528 175.295 223.029 176.868 223.389L178.327 223.723C180.902 224.303 181.983 225.375 181.983 227.309C181.983 229.779 180.076 231.317 177 231.317C174.091 231.317 172.166 229.858 172.052 227.555Z" fill="white"/>
<path d="M184.998 219.03H187.169V221.447H189.226V223.187H187.169V227.907C187.169 228.856 187.573 229.278 188.487 229.278C188.795 229.278 188.962 229.26 189.226 229.234V230.939C188.909 231 188.505 231.044 188.083 231.044C185.877 231.044 184.998 230.297 184.998 228.434V223.187H183.478V221.447H184.998V219.03Z" fill="white"/>
<path d="M195.466 231.194C192.583 231.194 190.843 229.313 190.843 226.193C190.843 223.09 192.609 221.192 195.466 221.192C198.331 221.192 200.089 223.082 200.089 226.193C200.089 229.313 198.34 231.194 195.466 231.194ZM195.466 229.366C196.986 229.366 197.848 228.206 197.848 226.193C197.848 224.189 196.978 223.02 195.466 223.02C193.945 223.02 193.075 224.189 193.075 226.193C193.075 228.206 193.945 229.366 195.466 229.366Z" fill="white"/>
<path d="M202.286 231V221.385H204.387V222.879H204.536C204.8 221.93 205.837 221.227 207.076 221.227C207.393 221.227 207.779 221.262 207.981 221.324V223.345C207.814 223.284 207.234 223.222 206.865 223.222C205.45 223.222 204.466 224.101 204.466 225.446V231H202.286Z" fill="white"/>
<path d="M210.917 234.49C210.785 234.49 210.196 234.481 210.056 234.455V232.67C210.179 232.697 210.504 232.706 210.653 232.706C211.576 232.706 212.095 232.354 212.376 231.466L212.49 231.044L209.054 221.385H211.444L213.694 228.891H213.844L216.085 221.385H218.388L214.916 231.308C214.099 233.699 213.07 234.49 210.917 234.49Z" fill="white"/>
</g>
<circle cx="195" cy="195" r="123.719" stroke="#A7CAF1" stroke-opacity="0.14" stroke-width="7"/>
<circle cx="195" cy="195" r="140.664" stroke="#A7CAF1" stroke-opacity="0.1" stroke-width="7"/>
<circle cx="195" cy="195" r="157.61" stroke="#A7CAF1" stroke-opacity="0.06" stroke-width="7"/>
<circle cx="195" cy="195" r="174.555" stroke="#A7CAF1" stroke-opacity="0.04" stroke-width="7"/>
<circle cx="195" cy="195" r="191.5" stroke="#A7CAF1" stroke-opacity="0.02" stroke-width="7"/>
<g filter="url(#filter1_f_4427_20745)">
<circle cx="195" cy="195" r="95.5214" stroke="#9FCDF8" stroke-width="5"/>
</g>
<g filter="url(#filter2_d_4427_20745)">
<circle cx="195" cy="195" r="96.5214" stroke="#B1CFF0" stroke-opacity="0.6" stroke-width="3" shape-rendering="crispEdges"/>
</g>
<g filter="url(#filter3_d_4427_20745)">
<path d="M76.9051 207.514L72.0985 218.088L61.524 222.895L72.0985 227.701L76.9051 238.276L81.7116 227.701L92.2861 222.895L81.7116 218.088" fill="white"/>
</g>
<g filter="url(#filter4_d_4427_20745)">
<path d="M57.4833 87.8545L55.08 93.1417L49.7928 95.545L55.08 97.9483L57.4833 103.236L59.8866 97.9483L65.1738 95.545L59.8866 93.1417" fill="white"/>
</g>
<g filter="url(#filter5_d_4427_20745)">
<path d="M281.942 348.289L279.539 353.576L274.251 355.98L279.539 358.383L281.942 363.67L284.345 358.383L289.632 355.98L284.345 353.576" fill="white"/>
</g>
<defs>
<filter id="filter0_d_4427_20745" x="213.489" y="109.472" width="76.9452" height="77.4668" filterUnits="userSpaceOnUse" color-interpolation-filters="sRGB">
<feFlood flood-opacity="0" result="BackgroundImageFix"/>
<feColorMatrix in="SourceAlpha" type="matrix" values="0 0 0 0 0 0 0 0 0 0 0 0 0 0 0 0 0 0 127 0" result="hardAlpha"/>
<feOffset/>
<feGaussianBlur stdDeviation="15"/>
<feComposite in2="hardAlpha" operator="out"/>
<feColorMatrix type="matrix" values="0 0 0 0 1 0 0 0 0 1 0 0 0 0 1 0 0 0 1 0"/>
<feBlend mode="normal" in2="BackgroundImageFix" result="effect1_dropShadow_4427_20745"/>
<feBlend mode="normal" in="SourceGraphic" in2="effect1_dropShadow_4427_20745" result="shape"/>
</filter>
<filter id="filter1_f_4427_20745" x="46.9786" y="46.9785" width="296.043" height="296.043" filterUnits="userSpaceOnUse" color-interpolation-filters="sRGB">
<feFlood flood-opacity="0" result="BackgroundImageFix"/>
<feBlend mode="normal" in="SourceGraphic" in2="BackgroundImageFix" result="shape"/>
<feGaussianBlur stdDeviation="25" result="effect1_foregroundBlur_4427_20745"/>
</filter>
<filter id="filter2_d_4427_20745" x="81.9786" y="81.9785" width="226.043" height="226.043" filterUnits="userSpaceOnUse" color-interpolation-filters="sRGB">
<feFlood flood-opacity="0" result="BackgroundImageFix"/>
<feColorMatrix in="SourceAlpha" type="matrix" values="0 0 0 0 0 0 0 0 0 0 0 0 0 0 0 0 0 0 127 0" result="hardAlpha"/>
<feOffset/>
<feGaussianBlur stdDeviation="7.5"/>
<feComposite in2="hardAlpha" operator="out"/>
<feColorMatrix type="matrix" values="0 0 0 0 1 0 0 0 0 1 0 0 0 0 1 0 0 0 0.3 0"/>
<feBlend mode="normal" in2="BackgroundImageFix" result="effect1_dropShadow_4427_20745"/>
<feBlend mode="normal" in="SourceGraphic" in2="effect1_dropShadow_4427_20745" result="shape"/>
</filter>
<filter id="filter3_d_4427_20745" x="31.524" y="177.514" width="90.762" height="90.7617" filterUnits="userSpaceOnUse" color-interpolation-filters="sRGB">
<feFlood flood-opacity="0" result="BackgroundImageFix"/>
<feColorMatrix in="SourceAlpha" type="matrix" values="0 0 0 0 0 0 0 0 0 0 0 0 0 0 0 0 0 0 127 0" result="hardAlpha"/>
<feOffset/>
<feGaussianBlur stdDeviation="15"/>
<feComposite in2="hardAlpha" operator="out"/>
<feColorMatrix type="matrix" values="0 0 0 0 1 0 0 0 0 1 0 0 0 0 1 0 0 0 1 0"/>
<feBlend mode="normal" in2="BackgroundImageFix" result="effect1_dropShadow_4427_20745"/>
<feBlend mode="normal" in="SourceGraphic" in2="effect1_dropShadow_4427_20745" result="shape"/>
</filter>
<filter id="filter4_d_4427_20745" x="19.7928" y="57.8545" width="75.381" height="75.3809" filterUnits="userSpaceOnUse" color-interpolation-filters="sRGB">
<feFlood flood-opacity="0" result="BackgroundImageFix"/>
<feColorMatrix in="SourceAlpha" type="matrix" values="0 0 0 0 0 0 0 0 0 0 0 0 0 0 0 0 0 0 127 0" result="hardAlpha"/>
<feOffset/>
<feGaussianBlur stdDeviation="15"/>
<feComposite in2="hardAlpha" operator="out"/>
<feColorMatrix type="matrix" values="0 0 0 0 1 0 0 0 0 1 0 0 0 0 1 0 0 0 1 0"/>
<feBlend mode="normal" in2="BackgroundImageFix" result="effect1_dropShadow_4427_20745"/>
<feBlend mode="normal" in="SourceGraphic" in2="effect1_dropShadow_4427_20745" result="shape"/>
</filter>
<filter id="filter5_d_4427_20745" x="244.251" y="318.289" width="75.381" height="75.3809" filterUnits="userSpaceOnUse" color-interpolation-filters="sRGB">
<feFlood flood-opacity="0" result="BackgroundImageFix"/>
<feColorMatrix in="SourceAlpha" type="matrix" values="0 0 0 0 0 0 0 0 0 0 0 0 0 0 0 0 0 0 127 0" result="hardAlpha"/>
<feOffset/>
<feGaussianBlur stdDeviation="15"/>
<feComposite in2="hardAlpha" operator="out"/>
<feColorMatrix type="matrix" values="0 0 0 0 1 0 0 0 0 1 0 0 0 0 1 0 0 0 1 0"/>
<feBlend mode="normal" in2="BackgroundImageFix" result="effect1_dropShadow_4427_20745"/>
<feBlend mode="normal" in="SourceGraphic" in2="effect1_dropShadow_4427_20745" result="shape"/>
</filter>
<linearGradient id="paint0_linear_4427_20745" x1="123.048" y1="123.048" x2="261.086" y2="266.952" gradientUnits="userSpaceOnUse">
<stop stop-color="#00E8FF"/>
<stop offset="1" stop-color="#016DE0"/>
</linearGradient>
<clipPath id="clip0_4427_20745">
<rect x="123.048" y="123.048" width="143.904" height="143.904" rx="71.9519" fill="white"/>
</clipPath>
</defs>
</svg>
