<svg width="13" height="13" viewBox="0 0 13 13" fill="none" xmlns="http://www.w3.org/2000/svg">
<g id="help-circle" clip-path="url(#clip0_3946_10449)">
<path id="Icon" d="M5.045 5C5.16255 4.66583 5.39458 4.38405 5.69998 4.20457C6.00538 4.02508 6.36445 3.95947 6.71359 4.01936C7.06273 4.07924 7.37941 4.26076 7.60754 4.53176C7.83567 4.80277 7.96053 5.14576 7.96 5.5C7.96 6.5 6.46 7 6.46 7M6.5 9H6.505M11.5 6.5C11.5 9.26142 9.26142 11.5 6.5 11.5C3.73858 11.5 1.5 9.26142 1.5 6.5C1.5 3.73858 3.73858 1.5 6.5 1.5C9.26142 1.5 11.5 3.73858 11.5 6.5Z" stroke="#475467" stroke-width="1.6" stroke-linecap="round" stroke-linejoin="round"/>
</g>
<defs>
<clipPath id="clip0_3946_10449">
<rect width="12" height="12" fill="white" transform="translate(0.5 0.5)"/>
</clipPath>
</defs>
</svg>
