<svg width="25" height="25" viewBox="0 0 20 20" fill="none" xmlns="http://www.w3.org/2000/svg">
<path fill-rule="evenodd" clip-rule="evenodd" d="M8.53711 0.164197C8.94086 0.127461 9.34787 0.172942 9.73356 0.297895C10.1192 0.422847 10.4756 0.624678 10.7811 0.891197L10.9311 1.0312L18.7531 8.8542C19.2914 9.39262 19.6049 10.1156 19.63 10.8765C19.655 11.6375 19.3898 12.3795 18.8881 12.9522L18.7531 13.0962L13.0961 18.7532C12.5577 19.2915 11.8347 19.605 11.0738 19.63C10.3128 19.6551 9.57079 19.3899 8.99811 18.8882L8.85411 18.7532L1.03011 10.9302C0.743583 10.6437 0.518068 10.3021 0.367167 9.92606C0.216267 9.55001 0.143109 9.14729 0.152107 8.7422L0.163107 8.5372L0.635107 3.3522C0.695705 2.68398 0.978558 2.05537 1.43846 1.56682C1.89836 1.07828 2.50876 0.758006 3.17211 0.657197L3.35111 0.636197L8.53711 0.164197ZM8.84511 2.1532L8.71811 2.1562L3.53311 2.6282C3.32047 2.6474 3.11955 2.73415 2.95977 2.87576C2.79998 3.01737 2.68972 3.2064 2.64511 3.4152L2.62811 3.5332L2.15611 8.7182C2.13338 8.97015 2.20699 9.22136 2.36211 9.4212L2.44511 9.5162L10.2681 17.3392C10.4403 17.5114 10.6694 17.6148 10.9124 17.6301C11.1555 17.6454 11.3957 17.5714 11.5881 17.4222L11.6821 17.3392L17.3391 11.6822C17.5113 11.51 17.6147 11.2809 17.63 11.0379C17.6453 10.7949 17.5714 10.5546 17.4221 10.3622L17.3391 10.2682L9.51611 2.4452C9.33736 2.26658 9.09763 2.16226 8.84511 2.1532ZM5.31711 5.3182C5.59571 5.0396 5.92645 4.8186 6.29046 4.66782C6.65447 4.51705 7.04461 4.43944 7.43861 4.43944C7.83261 4.43944 8.22275 4.51705 8.58675 4.66782C8.95076 4.8186 9.28151 5.0396 9.56011 5.3182C9.83871 5.5968 10.0597 5.92754 10.2105 6.29155C10.3613 6.65556 10.4389 7.0457 10.4389 7.4397C10.4389 7.8337 10.3613 8.22384 10.2105 8.58784C10.0597 8.95185 9.83871 9.2826 9.56011 9.5612C8.99745 10.1239 8.23432 10.44 7.43861 10.44C6.64289 10.44 5.87976 10.1239 5.31711 9.5612C4.75445 8.99854 4.43835 8.23541 4.43835 7.4397C4.43835 6.64398 4.75445 5.88085 5.31711 5.3182ZM8.14611 6.7322C8.05326 6.63929 7.94303 6.56557 7.82169 6.51527C7.70036 6.46496 7.57031 6.43904 7.43896 6.43899C7.30761 6.43895 7.17754 6.46477 7.05617 6.515C6.9348 6.56522 6.82452 6.63885 6.73161 6.7317C6.6387 6.82454 6.56498 6.93478 6.51467 7.05611C6.46437 7.17744 6.43845 7.30749 6.4384 7.43884C6.43836 7.57019 6.46418 7.70026 6.5144 7.82163C6.56463 7.943 6.63826 8.05329 6.73111 8.1462C6.91861 8.33384 7.17298 8.43931 7.43825 8.4394C7.70352 8.43949 7.95797 8.3342 8.14561 8.1467C8.33325 7.95919 8.43871 7.70482 8.43881 7.43955C8.4389 7.17428 8.33361 6.91984 8.14611 6.7322Z" fill="black"/>
</svg>
