<svg width="16" height="16" viewBox="0 0 14 14" transform="translate(0,3.5)" fill="none" xmlns="http://www.w3.org/2000/svg">
<path d="M10.3333 0.166664H8.33331C7.96665 0.166664 7.66665 0.466664 7.66665 0.833331C7.66665 1.2 7.96665 1.5 8.33331 1.5H10.3333C11.4333 1.5 12.3333 2.4 12.3333 3.5C12.3333 4.6 11.4333 5.5 10.3333 5.5H8.33331C7.96665 5.5 7.66665 5.8 7.66665 6.16666C7.66665 6.53333 7.96665 6.83333 8.33331 6.83333H10.3333C12.1733 6.83333 13.6666 5.34 13.6666 3.5C13.6666 1.66 12.1733 0.166664 10.3333 0.166664ZM4.33331 3.5C4.33331 3.86666 4.63331 4.16666 4.99998 4.16666H8.99998C9.36665 4.16666 9.66665 3.86666 9.66665 3.5C9.66665 3.13333 9.36665 2.83333 8.99998 2.83333H4.99998C4.63331 2.83333 4.33331 3.13333 4.33331 3.5ZM5.66665 5.5H3.66665C2.56665 5.5 1.66665 4.6 1.66665 3.5C1.66665 2.4 2.56665 1.5 3.66665 1.5H5.66665C6.03331 1.5 6.33331 1.2 6.33331 0.833331C6.33331 0.466664 6.03331 0.166664 5.66665 0.166664H3.66665C1.82665 0.166664 0.333313 1.66 0.333313 3.5C0.333313 5.34 1.82665 6.83333 3.66665 6.83333H5.66665C6.03331 6.83333 6.33331 6.53333 6.33331 6.16666C6.33331 5.8 6.03331 5.5 5.66665 5.5Z" fill="#026AA2"/>
</svg>
