<svg width="20" height="19" viewBox="0 0 20 19" fill="none" xmlns="http://www.w3.org/2000/svg">
<path d="M3.57131 5.74295C3.57131 5.40196 3.70677 5.07494 3.94788 4.83382C4.189 4.5927 4.51603 4.45724 4.85702 4.45724H15.1427C15.4837 4.45724 15.8108 4.5927 16.0519 4.83382C16.293 5.07494 16.4284 5.40196 16.4284 5.74295V8.31438C16.4284 8.65538 16.293 8.9824 16.0519 9.22352C15.8108 9.46464 15.4837 9.6001 15.1427 9.6001H4.85702C4.51603 9.6001 4.189 9.46464 3.94788 9.22352C3.70677 8.9824 3.57131 8.65538 3.57131 8.31438V5.74295ZM15.1427 5.74295H4.85702V8.31438H15.1427V5.74295ZM12.5713 10.8858C12.2303 10.8858 11.9033 11.0213 11.6622 11.2624C11.4211 11.5035 11.2856 11.8305 11.2856 12.1715V13.4572C11.2856 13.7982 11.4211 14.1253 11.6622 14.3664C11.9033 14.6075 12.2303 14.743 12.5713 14.743H15.1427C15.4837 14.743 15.8108 14.6075 16.0519 14.3664C16.293 14.1253 16.4284 13.7982 16.4284 13.4572V12.1715C16.4284 11.8305 16.293 11.5035 16.0519 11.2624C15.8108 11.0213 15.4837 10.8858 15.1427 10.8858H12.5713ZM12.5713 12.1715H15.1427V13.4572H12.5713V12.1715ZM3.57131 11.5287C3.57131 11.3582 3.63904 11.1947 3.7596 11.0741C3.88015 10.9535 4.04367 10.8858 4.21416 10.8858H9.35702C9.52752 10.8858 9.69103 10.9535 9.81159 11.0741C9.93215 11.1947 9.99988 11.3582 9.99988 11.5287C9.99988 11.6992 9.93215 11.8627 9.81159 11.9832C9.69103 12.1038 9.52752 12.1715 9.35702 12.1715H4.21416C4.04367 12.1715 3.88015 12.1038 3.7596 11.9832C3.63904 11.8627 3.57131 11.6992 3.57131 11.5287ZM4.21416 13.4572C4.04367 13.4572 3.88015 13.525 3.7596 13.6455C3.63904 13.7661 3.57131 13.9296 3.57131 14.1001C3.57131 14.2706 3.63904 14.4341 3.7596 14.5547C3.88015 14.6752 4.04367 14.743 4.21416 14.743H9.35702C9.52752 14.743 9.69103 14.6752 9.81159 14.5547C9.93215 14.4341 9.99988 14.2706 9.99988 14.1001C9.99988 13.9296 9.93215 13.7661 9.81159 13.6455C9.69103 13.525 9.52752 13.4572 9.35702 13.4572H4.21416ZM0.999878 4.45724C0.999878 3.43426 1.40625 2.45318 2.12961 1.72983C2.85296 1.00647 3.83404 0.600098 4.85702 0.600098H15.1427C16.1657 0.600098 17.1468 1.00647 17.8701 1.72983C18.5935 2.45318 18.9999 3.43426 18.9999 4.45724V14.743C18.9999 15.7659 18.5935 16.747 17.8701 17.4704C17.1468 18.1937 16.1657 18.6001 15.1427 18.6001H4.85702C3.83404 18.6001 2.85296 18.1937 2.12961 17.4704C1.40625 16.747 0.999878 15.7659 0.999878 14.743V4.45724ZM4.85702 1.88581C4.17504 1.88581 3.52098 2.15673 3.03875 2.63897C2.55651 3.1212 2.28559 3.77526 2.28559 4.45724V14.743C2.28559 15.4249 2.55651 16.079 3.03875 16.5612C3.52098 17.0435 4.17504 17.3144 4.85702 17.3144H15.1427C15.8247 17.3144 16.4788 17.0435 16.961 16.5612C17.4432 16.079 17.7142 15.4249 17.7142 14.743V4.45724C17.7142 3.77526 17.4432 3.1212 16.961 2.63897C16.4788 2.15673 15.8247 1.88581 15.1427 1.88581H4.85702Z" fill="#000" stroke="#000" stroke-width="0.3"/>
</svg>
