<svg width="12" height="13" viewBox="0 0 12 13" fill="none" xmlns="http://www.w3.org/2000/svg">
<path d="M3.50335 9.09945L4.5306 8.80311L10.7157 2.54395C10.7645 2.49395 10.7916 2.42677 10.7913 2.35692C10.791 2.28707 10.7632 2.22015 10.7139 2.17061L10.3435 1.79611C10.3196 1.77152 10.291 1.75194 10.2594 1.73851C10.2278 1.72509 10.1939 1.71809 10.1596 1.71793C10.1252 1.71777 10.0912 1.72444 10.0595 1.73757C10.0278 1.75069 9.99902 1.77 9.97485 1.79436L3.8061 8.0372L3.50277 9.09886L3.50335 9.09945ZM11.0768 1.05411L11.4472 1.4292C11.9582 1.94661 11.9629 2.78136 11.4565 3.29353L5.08302 9.74403L2.88735 10.3764C2.7533 10.4139 2.60984 10.3967 2.48845 10.3286C2.36706 10.2604 2.27765 10.1469 2.23985 10.0129C2.21173 9.91662 2.21132 9.81432 2.23869 9.71778L2.87744 7.47778L9.23402 1.0442C9.35489 0.922489 9.49879 0.826066 9.65731 0.760553C9.81584 0.695039 9.98582 0.661745 10.1574 0.662614C10.3289 0.663483 10.4985 0.698497 10.6564 0.765613C10.8142 0.832729 10.9571 0.931188 11.0768 1.05411ZM4.35735 1.7267C4.64669 1.7267 4.88119 1.96411 4.88119 2.25695C4.88165 2.32617 4.86846 2.39481 4.84238 2.45893C4.81629 2.52305 4.77783 2.5814 4.72918 2.63065C4.68053 2.6799 4.62265 2.71907 4.55885 2.74593C4.49505 2.77279 4.42658 2.78682 4.35735 2.7872H2.26202C1.68335 2.7872 1.21435 3.26203 1.21435 3.84711V10.2089C1.21435 10.7946 1.68335 11.2694 2.26202 11.2694H8.54802C9.12669 11.2694 9.59627 10.7946 9.59627 10.2089V8.08853C9.59627 7.7957 9.83077 7.55828 10.1201 7.55828C10.4094 7.55828 10.6439 7.7957 10.6439 8.08911V10.2089C10.6439 11.3803 9.70535 12.3299 8.54802 12.3299H2.26202C1.10469 12.3299 0.166687 11.3803 0.166687 10.2089V3.84711C0.166687 2.67636 1.10469 1.7267 2.26202 1.7267H4.35735Z" fill="#0B0B0B" fill-opacity="0.6"/>
</svg>
