<svg width="17" height="16" viewBox="0 0 17 16" fill="none" xmlns="http://www.w3.org/2000/svg">
<g id="book-open-02" clip-path="url(#clip0_3929_7306)">
<path id="Icon" d="M8.04069 13.3333H3.50736C2.76062 13.3333 2.38725 13.3333 2.10204 13.188C1.85115 13.0602 1.64718 12.8562 1.51935 12.6053C1.37402 12.3201 1.37402 11.9467 1.37402 11.2V4.79999C1.37402 4.05325 1.37402 3.67988 1.51935 3.39467C1.64718 3.14379 1.85115 2.93981 2.10204 2.81198C2.38725 2.66666 2.76062 2.66666 3.50736 2.66666H3.77402C5.2675 2.66666 6.01423 2.66666 6.58466 2.95731C7.08643 3.21297 7.49438 3.62092 7.75004 4.12268C8.04069 4.69311 8.04069 5.43985 8.04069 6.93332M8.04069 13.3333V6.93332M8.04069 13.3333H12.574C13.3208 13.3333 13.6941 13.3333 13.9793 13.188C14.2302 13.0602 14.4342 12.8562 14.562 12.6053C14.7074 12.3201 14.7074 11.9467 14.7074 11.2V4.79999C14.7074 4.05325 14.7074 3.67988 14.562 3.39467C14.4342 3.14379 14.2302 2.93981 13.9793 2.81198C13.6941 2.66666 13.3208 2.66666 12.574 2.66666H12.3074C10.8139 2.66666 10.0671 2.66666 9.49672 2.95731C8.99495 3.21297 8.587 3.62092 8.33134 4.12268C8.04069 4.69311 8.04069 5.43985 8.04069 6.93332" stroke="#EAECF0" stroke-width="1.6" stroke-linecap="round" stroke-linejoin="round"/>
</g>
<defs>
<clipPath id="clip0_3929_7306">
<rect width="16" height="16" fill="white" transform="translate(0.0410156)"/>
</clipPath>
</defs>
</svg>
