<svg width="25" height="25" viewBox="0 0 19 20" fill="none" xmlns="http://www.w3.org/2000/svg">
<path fill-rule="evenodd" clip-rule="evenodd" d="M11.2791 0.152C10.9091 -4.47035e-08 10.4391 0 9.50007 0C8.56107 0 8.09107 -4.47035e-08 7.72107 0.152C7.22852 0.354211 6.83645 0.743765 6.63107 1.235C6.53707 1.458 6.50107 1.719 6.48607 2.098C6.4794 2.3726 6.4028 2.64097 6.26352 2.87772C6.12423 3.11447 5.92686 3.31178 5.69007 3.451C5.44882 3.5851 5.17762 3.65615 4.9016 3.65754C4.62558 3.65894 4.35367 3.59065 4.11107 3.459C3.77307 3.281 3.52807 3.183 3.28607 3.151C2.75663 3.08148 2.22114 3.2238 1.79607 3.547C1.47807 3.789 1.24307 4.193 0.774071 5C0.304071 5.807 0.0700714 6.21 0.0170714 6.605C-0.0529286 7.131 0.0910715 7.663 0.417071 8.084C0.565071 8.276 0.774072 8.437 1.09707 8.639C1.57407 8.936 1.88007 9.442 1.88007 10C1.88007 10.558 1.57407 11.064 1.09807 11.36C0.774071 11.563 0.565071 11.724 0.416071 11.916C0.255154 12.1239 0.137041 12.3617 0.0685557 12.6156C7.07507e-05 12.8694 -0.0174278 13.1343 0.0170714 13.395C0.0700714 13.789 0.304071 14.193 0.774071 15C1.24407 15.807 1.47807 16.21 1.79607 16.453C2.22007 16.776 2.75607 16.918 3.28607 16.849C3.52807 16.817 3.77307 16.719 4.11107 16.541C4.3538 16.4092 4.62589 16.3408 4.9021 16.3422C5.17831 16.3436 5.44969 16.4147 5.69107 16.549C6.17707 16.829 6.46507 17.344 6.48607 17.902C6.50107 18.282 6.53707 18.542 6.63107 18.765C6.83507 19.255 7.22707 19.645 7.72107 19.848C8.09107 20 8.56107 20 9.50007 20C10.4391 20 10.9091 20 11.2791 19.848C11.7716 19.6458 12.1637 19.2562 12.3691 18.765C12.4631 18.542 12.4991 18.282 12.5141 17.902C12.5341 17.344 12.8231 16.828 13.3101 16.549C13.5513 16.4149 13.8225 16.3439 14.0985 16.3425C14.3746 16.3411 14.6465 16.4093 14.8891 16.541C15.2271 16.719 15.4721 16.817 15.7141 16.849C16.2441 16.919 16.7801 16.776 17.2041 16.453C17.5221 16.211 17.7571 15.807 18.2261 15C18.6961 14.193 18.9301 13.79 18.9831 13.395C19.0174 13.1343 18.9998 12.8693 18.9311 12.6155C18.8625 12.3616 18.7442 12.1239 18.5831 11.916C18.4351 11.724 18.2261 11.563 17.9031 11.361C17.4261 11.064 17.1201 10.558 17.1201 10C17.1201 9.442 17.4261 8.936 17.9021 8.64C18.2261 8.437 18.4351 8.276 18.5841 8.084C18.745 7.87606 18.8631 7.63829 18.9316 7.38443C19.0001 7.13057 19.0176 6.86566 18.9831 6.605C18.9301 6.211 18.6961 5.807 18.2261 5C17.7561 4.193 17.5221 3.79 17.2041 3.547C16.779 3.2238 16.2435 3.08148 15.7141 3.151C15.4721 3.183 15.2271 3.281 14.8891 3.459C14.6463 3.59083 14.3743 3.65922 14.098 3.65782C13.8218 3.65642 13.5504 3.58528 13.3091 3.451C13.0725 3.31166 12.8753 3.11429 12.7362 2.87755C12.5971 2.64081 12.5206 2.37251 12.5141 2.098C12.4991 1.718 12.4631 1.458 12.3691 1.235C12.2674 0.991736 12.1188 0.770883 11.9318 0.585058C11.7448 0.399233 11.523 0.252078 11.2791 0.152ZM9.50007 13C11.1701 13 12.5231 11.657 12.5231 10C12.5231 8.343 11.1691 7 9.50007 7C7.83007 7 6.47707 8.343 6.47707 10C6.47707 11.657 7.83107 13 9.50007 13Z" fill="#0B0B0B"/>
</svg>
