<svg width="16" height="17" viewBox="0 0 16 17" fill="none" xmlns="http://www.w3.org/2000/svg">
<path d="M5.16665 2.16699C5.16665 2.03438 5.11397 1.90721 5.02021 1.81344C4.92644 1.71967 4.79926 1.66699 4.66665 1.66699C4.53404 1.66699 4.40687 1.71967 4.3131 1.81344C4.21933 1.90721 4.16665 2.03438 4.16665 2.16699V3.22033C3.20665 3.29699 2.57732 3.48499 2.11465 3.94833C1.65132 4.41099 1.46332 5.04099 1.38599 6.00033H14.614C14.5367 5.04033 14.3487 4.41099 13.8853 3.94833C13.4227 3.48499 12.7927 3.29699 11.8333 3.21966V2.16699C11.8333 2.03438 11.7806 1.90721 11.6869 1.81344C11.5931 1.71967 11.4659 1.66699 11.3333 1.66699C11.2007 1.66699 11.0735 1.71967 10.9798 1.81344C10.886 1.90721 10.8333 2.03438 10.8333 2.16699V3.17566C10.39 3.16699 9.89265 3.16699 9.33332 3.16699H6.66665C6.10732 3.16699 5.60999 3.16699 5.16665 3.17566V2.16699Z" fill="#0B0B0B" fill-opacity="0.6"/>
<path fill-rule="evenodd" clip-rule="evenodd" d="M1.33331 8.5C1.33331 7.94067 1.33331 7.44333 1.34198 7H14.658C14.6666 7.44333 14.6666 7.94067 14.6666 8.5V9.83333C14.6666 12.3473 14.6666 13.6047 13.8853 14.3853C13.1046 15.1667 11.8473 15.1667 9.33331 15.1667H6.66665C4.15265 15.1667 2.89531 15.1667 2.11465 14.3853C1.33331 13.6047 1.33331 12.3473 1.33331 9.83333V8.5ZM11.3333 9.83333C11.5101 9.83333 11.6797 9.7631 11.8047 9.63807C11.9297 9.51305 12 9.34348 12 9.16667C12 8.98986 11.9297 8.82029 11.8047 8.69526C11.6797 8.57024 11.5101 8.5 11.3333 8.5C11.1565 8.5 10.9869 8.57024 10.8619 8.69526C10.7369 8.82029 10.6666 8.98986 10.6666 9.16667C10.6666 9.34348 10.7369 9.51305 10.8619 9.63807C10.9869 9.7631 11.1565 9.83333 11.3333 9.83333ZM11.3333 12.5C11.5101 12.5 11.6797 12.4298 11.8047 12.3047C11.9297 12.1797 12 12.0101 12 11.8333C12 11.6565 11.9297 11.487 11.8047 11.3619C11.6797 11.2369 11.5101 11.1667 11.3333 11.1667C11.1565 11.1667 10.9869 11.2369 10.8619 11.3619C10.7369 11.487 10.6666 11.6565 10.6666 11.8333C10.6666 12.0101 10.7369 12.1797 10.8619 12.3047C10.9869 12.4298 11.1565 12.5 11.3333 12.5ZM8.66665 9.16667C8.66665 9.34348 8.59641 9.51305 8.47138 9.63807C8.34636 9.7631 8.17679 9.83333 7.99998 9.83333C7.82317 9.83333 7.6536 9.7631 7.52857 9.63807C7.40355 9.51305 7.33331 9.34348 7.33331 9.16667C7.33331 8.98986 7.40355 8.82029 7.52857 8.69526C7.6536 8.57024 7.82317 8.5 7.99998 8.5C8.17679 8.5 8.34636 8.57024 8.47138 8.69526C8.59641 8.82029 8.66665 8.98986 8.66665 9.16667ZM8.66665 11.8333C8.66665 12.0101 8.59641 12.1797 8.47138 12.3047C8.34636 12.4298 8.17679 12.5 7.99998 12.5C7.82317 12.5 7.6536 12.4298 7.52857 12.3047C7.40355 12.1797 7.33331 12.0101 7.33331 11.8333C7.33331 11.6565 7.40355 11.487 7.52857 11.3619C7.6536 11.2369 7.82317 11.1667 7.99998 11.1667C8.17679 11.1667 8.34636 11.2369 8.47138 11.3619C8.59641 11.487 8.66665 11.6565 8.66665 11.8333ZM4.66665 9.83333C4.84346 9.83333 5.01303 9.7631 5.13805 9.63807C5.26307 9.51305 5.33331 9.34348 5.33331 9.16667C5.33331 8.98986 5.26307 8.82029 5.13805 8.69526C5.01303 8.57024 4.84346 8.5 4.66665 8.5C4.48984 8.5 4.32027 8.57024 4.19524 8.69526C4.07022 8.82029 3.99998 8.98986 3.99998 9.16667C3.99998 9.34348 4.07022 9.51305 4.19524 9.63807C4.32027 9.7631 4.48984 9.83333 4.66665 9.83333ZM4.66665 12.5C4.84346 12.5 5.01303 12.4298 5.13805 12.3047C5.26307 12.1797 5.33331 12.0101 5.33331 11.8333C5.33331 11.6565 5.26307 11.487 5.13805 11.3619C5.01303 11.2369 4.84346 11.1667 4.66665 11.1667C4.48984 11.1667 4.32027 11.2369 4.19524 11.3619C4.07022 11.487 3.99998 11.6565 3.99998 11.8333C3.99998 12.0101 4.07022 12.1797 4.19524 12.3047C4.32027 12.4298 4.48984 12.5 4.66665 12.5Z" fill="#0B0B0B" fill-opacity="0.6"/>
</svg>
