<svg width="16" height="17" viewBox="0 0 16 17" fill="none" xmlns="http://www.w3.org/2000/svg">
<g clip-path="url(#clip0_1608_5544)">
<path d="M4.8889 7.83301L4.44446 9.21079H5.33335L4.8889 7.83301Z" fill="#0B0B0B" fill-opacity="0.6"/>
<path d="M13.4667 1.83301H6.35555V4.05523H8.13333V4.94412H2.35555C1.59999 4.94412 1.02222 5.5219 1.02222 6.27745V11.1663C1.02222 11.9219 1.59999 12.4997 2.35555 12.4997H2.79999V14.7663L5.59999 12.4997H8.57777V9.38856H13.4667C14.2222 9.38856 14.8 8.81079 14.8 8.05523V3.16634C14.8 2.41079 14.2222 1.83301 13.4667 1.83301ZM5.82222 10.6775L5.59999 9.96634H4.22222L3.95555 10.6775H2.88888L4.35555 6.7219H5.42222L6.88888 10.6775H5.82222ZM12.5778 7.16634V8.05523C12 8.05523 11.3778 7.87745 10.8444 7.61079C10.3111 7.87745 9.68888 8.01079 9.06666 8.05523L9.02222 7.16634C9.33333 7.16634 9.64444 7.1219 9.95555 7.03301C9.55555 6.63301 9.28888 6.14412 9.15555 5.61079H10.0889C10.2222 6.01079 10.4889 6.3219 10.8 6.58856C11.2889 6.18856 11.6 5.61079 11.6444 4.94412H8.97777V4.05523H10.3111V3.16634H11.2V4.05523H12.6667L12.7111 4.49967C12.7556 5.43301 12.4 6.36634 11.7333 7.03301C12.0444 7.1219 12.3111 7.16634 12.5778 7.16634Z" fill="#0B0B0B" fill-opacity="0.6"/>
</g>
<defs>
<clipPath id="clip0_1608_5544">
<rect width="16" height="16" fill="white" transform="translate(0 0.5)"/>
</clipPath>
</defs>
</svg>
