<svg width="16" height="17" viewBox="0 0 16 17" fill="none" xmlns="http://www.w3.org/2000/svg">
<path fill-rule="evenodd" clip-rule="evenodd" d="M8.00002 14.4997L8.47202 14.9703C8.41008 15.0325 8.33647 15.0819 8.25542 15.1155C8.17436 15.1492 8.08746 15.1665 7.99969 15.1665C7.91192 15.1665 7.82501 15.1492 7.74396 15.1155C7.6629 15.0819 7.58929 15.0325 7.52735 14.9703L7.52335 14.9657L7.51202 14.9543L7.47069 14.9123C7.23568 14.6703 7.00454 14.4244 6.77735 14.175C6.20695 13.55 5.66077 12.9033 5.14002 12.2363C4.54535 11.4697 3.93735 10.603 3.47535 9.74701C3.02335 8.90767 2.66669 7.99834 2.66669 7.16634C2.66669 4.14034 5.06135 1.83301 8.00002 1.83301C10.9387 1.83301 13.3334 4.14034 13.3334 7.16634C13.3334 7.99834 12.9767 8.90767 12.5247 9.74634C12.0627 10.6037 11.4554 11.4697 10.86 12.2363C10.1316 13.1694 9.3536 14.0627 8.52935 14.9123L8.48802 14.9543L8.47669 14.9657L8.47269 14.9697L8.00002 14.4997ZM8.00002 9.16634C8.53045 9.16634 9.03916 8.95563 9.41423 8.58055C9.78931 8.20548 10 7.69677 10 7.16634C10 6.63591 9.78931 6.1272 9.41423 5.75213C9.03916 5.37705 8.53045 5.16634 8.00002 5.16634C7.46959 5.16634 6.96088 5.37705 6.58581 5.75213C6.21073 6.1272 6.00002 6.63591 6.00002 7.16634C6.00002 7.69677 6.21073 8.20548 6.58581 8.58055C6.96088 8.95563 7.46959 9.16634 8.00002 9.16634Z" fill="#0B0B0B" fill-opacity="0.6"/>
</svg>
