<svg width="16" height="17" viewBox="0 0 16 17" fill="none" xmlns="http://www.w3.org/2000/svg">
<path d="M5.87531 8.24101C6.17998 7.98767 6.48731 7.98767 6.79931 8.24834L6.87131 8.31367L10.1953 11.6377L10.258 11.693C10.3863 11.7924 10.5464 11.8417 10.7084 11.8314C10.8704 11.8212 11.023 11.7523 11.1378 11.6375C11.2526 11.5227 11.3215 11.37 11.3317 11.2081C11.342 11.0461 11.2927 10.886 11.1933 10.7577L11.138 10.695L10.2766 9.83301L10.4713 9.63767L10.542 9.57434C10.8466 9.32101 11.154 9.32101 11.466 9.58167L11.538 9.64701L14.654 12.7637C14.5909 13.3985 14.3022 13.9897 13.8405 14.4299C13.3787 14.8702 12.7744 15.1303 12.1373 15.163L12 15.1663H3.99998C3.33859 15.1663 2.70081 14.9205 2.21048 14.4766C1.72016 14.0327 1.41229 13.4225 1.34665 12.7643L5.80465 8.30434L5.87531 8.24101ZM12 1.83301C12.6841 1.83301 13.3421 2.09596 13.8379 2.56749C14.3336 3.03902 14.6291 3.68304 14.6633 4.36634L14.6666 4.49967V10.8897L12.4713 8.69501L12.3713 8.60367C11.534 7.87367 10.4713 7.87234 9.64065 8.59234L9.53798 8.68567L9.33331 8.88967L7.80465 7.36167L7.70465 7.27034C6.86731 6.54034 5.80465 6.53901 4.97398 7.25901L4.87131 7.35234L1.33331 10.8897V4.49967C1.33331 3.81551 1.59627 3.15752 2.0678 2.6618C2.53932 2.16608 3.18334 1.87055 3.86665 1.83634L3.99998 1.83301H12ZM10.0066 5.16634L9.92198 5.17101C9.75995 5.19028 9.61061 5.26831 9.50225 5.39032C9.3939 5.51232 9.33405 5.66983 9.33405 5.83301C9.33405 5.99618 9.3939 6.15369 9.50225 6.2757C9.61061 6.3977 9.75995 6.47573 9.92198 6.49501L9.99998 6.49967L10.0846 6.49501C10.2467 6.47573 10.396 6.3977 10.5044 6.2757C10.6127 6.15369 10.6726 5.99618 10.6726 5.83301C10.6726 5.66983 10.6127 5.51232 10.5044 5.39032C10.396 5.26831 10.2467 5.19028 10.0846 5.17101L10.0066 5.16634Z" fill="#0B0B0B" fill-opacity="0.6"/>
</svg>
